<svg width="40" height="40" viewBox="0 0 40 40" fill="none" xmlns="http://www.w3.org/2000/svg">
    <circle cx="20" cy="20" r="20" fill="#F0F6FF"/>
    <circle cx="20" cy="20" r="19.5" stroke="black"/>
    <circle cx="20" cy="20" r="17.5" stroke="black"/>
    <circle cx="20" cy="20" r="16" stroke="black"/>
    <line x1="20" y1="20" x2="30" y2="30" stroke="black" stroke-linecap="round"/>
    <line x1="20" y1="20" x2="10" y2="10" stroke="black" stroke-linecap="round"/>
    <line x1="20" y1="20" x2="20" y2="10" stroke="black" stroke-linecap="round"/>
    <line x1="20" y1="20" x2="20" y2="30" stroke="black" stroke-linecap="round"/>
    <rect x="17.5" y="8.90625" width="5" height="22.1875" fill="#C4C4C4"/>
    <rect x="8.90625" y="17.5" width="22.1875" height="5" fill="#C4C4C4"/>
    <circle cx="20" cy="20" r="15" stroke="black" stroke-width="2"/>
    <circle cx="20" cy="20" r="10" stroke="black" stroke-width="2"/>
    <circle cx="20" cy="20" r="5" stroke="black" stroke-width="2"/>
    <rect x="13.5" y="13.5" width="13" height="13" stroke="black"/>
    <circle cx="20" cy="20" r="16.5" stroke="#1A6CFF" stroke-width="3"/>
    <rect x="17.5" y="16.5" width="5" height="7" rx="2.5" fill="#1A6CFF"/>
    <rect x="17.5" y="26.5" width="5" height="7" rx="2.5" fill="#1A6CFF"/>
    <rect x="11.5" y="20.5" width="17" height="3" rx="1.5" fill="#1A6CFF"/>
</svg>