<?xml version="1.0" encoding="utf-8"?>
<svg version="1.1" id="Layer_1" xmlns="http://www.w3.org/2000/svg"
     x="0px" y="0px"
     viewBox="0 0 700 700">
    <style type="text/css">
        .st0{fill:#09090F;}
        .st1{fill:#AFB1E0;}
        .st2{fill:#1B1B1F;}
        .st3{fill:#A3A5D9;}
        .st4{fill:#B7B9E5;}
        .st5{fill:#BEC0E9;}
        .st6{fill:#FDFDFE;}
        .st7{fill:#FDFEFE;}
        .st8{fill:#C7CAF0;}
        .st9{fill:#3EBEE5;}
        .st10{fill:#FCFDFE;}
        .st11{fill:#ABAEE4;}
        .st12{fill:#F8FBFC;}
        .st13{fill:#F7FAFC;}
        .st14{fill:#A9ACE1;}
        .st15{fill:#FEFEFE;}
        .st16{fill:#A0A0D8;}
        .st17{fill:#AAADE3;}
        .st18{fill:#B3B5E4;}
        .st19{fill:#E4EFF7;}
        .st20{fill:#F4F8FA;}
        .st21{fill:#F6FAFC;}
        .st22{fill:#E6F3F8;}
        .st23{fill:#B3B6E5;}
        .st24{fill:#AFB1E2;}
        .st25{fill:#2F2E53;}
        .st26{fill:#E0ECF4;}
        .st27{fill:#262547;}
        .st28{fill:#C5C9EE;}
        .st29{fill:#C2C8EB;}
        .st30{fill:#CDD2F1;}
        .st31{fill:#C3C6ED;}
        .st32{fill:#7678A8;}
        .st33{fill:#6E6D9A;}
        .st34{fill:#7F7FAD;}
        .st35{fill:#DBE6EE;}
        .st36{fill:#FFFFFF;}
        .st37{fill:#515184;}
        .st38{fill:#242343;}
        .st39{fill:#7C7AA6;}
        .st40{fill:#05050A;}
        .st41{fill:#A9ACE3;}
        .st42{fill:#8A89B7;}
        .st43{fill:#AFB0D7;}
        .st44{fill:#272648;}
        .st45{fill:#1A192E;}
        .st46{fill:#F9FBFD;}
        .st47{fill:#4E69AE;}
        .st48{fill:#242344;}
        .st49{fill:#4E62A2;}
        .st50{fill:#F5F6FA;}
        .st51{fill:#4F4D7D;}
        .st52{fill:#4A4A77;}
        .st53{fill:#4D4B7A;}
        .st54{fill:#C8CCED;}
        .st55{fill:#5465A3;}
        .st56{fill:#646BA0;}
        .st57{fill:#7B78A4;}
        .st58{fill:#020203;}
        .st59{fill:#4E62A4;}
        .st60{fill:#3EBFE6;}
        .st61{fill:#0101FE;}
        .st62{fill:#0E0D19;}
        .st63{fill:#3DC1E7;}
        .st64{fill:#514F81;}
    </style>
    <path class="st0" d="M463.9,485.9c-0.3,0-0.5,0.1-1,0.5c-1.8,1.2-3.2,2.2-4.7,3.3c-0.3,0-0.5,0.1-1,0.6c-0.5,0.6-0.7,0.9-0.9,1.3
	c-0.3-0.1-0.7-0.1-1.6-0.2c-0.7,0.3-0.9,0.7-1.1,1c0,0,0,0.1-0.3,0c-2,0.7-3.6,1.4-5.4,2c-0.2-0.1-0.5,0.1-0.9,0.1
	c-10.7,5.5-22.2,4.2-33.2,5.6c-5.4,0.7-10.9-0.1-16.4,0.1c-1.3,0.1-3.6,1.3-3.7,2.3c-0.6,3.5-0.8,7.2-0.7,10.8
	c0.5,14.2,0.9,28.5,1.7,42.7c0.5,8,1.8,16,2.8,24.6c4.1-2.9,7.5-5.3,11.3-7.8c11.7-5.3,23.3-5.6,35.3-1.6c2.7,1.2,5.2,2.1,8.1,3.1
	c2.8,0.7,5.3,1.5,7.7,2.3c0.4,1.1,0.9,2.4,1.4,3.7c0,0,0.1-0.1,0,0.2c0.2,0.5,0.5,0.7,0.8,0.8c0,0,0.2-0.2,0.1,0.2
	c0.2,0.5,0.5,0.7,0.8,0.8c0,0,0.2-0.2,0.1,0.1c0,0.7,0.2,0.9,0.6,0.9c0,0,0.1,0.1,0.2,0.4c1.1,1.3,2.1,2.3,3,3.2c0,0,0.1-0.1,0,0.3
	c0.8,1.2,1.7,2.1,2.6,3c0,0,0,0.3,0.1,0.6c0.3,0.7,0.6,0.9,0.9,1.2c1.8,4.3,4,8.6,5.2,13c2.1,7.8-1.4,12.1-9.5,12.1
	c-25.2,0-50.5-0.2-75.7-0.1c-4.3,0-6.4-2.4-6.5-5.8c-0.1-4.5,0.2-9.3,1.8-13.4c2-5.1,3.4-9.9,2.3-15.4c-0.4-2-0.3-4.1-0.5-6.9
	c-3-2.1-3.7-4.4-3.5-7.4c0.3-5.5,0-11,0-16.6c0-0.1,0-0.3,0.3-0.4c0.4-0.8,0.6-1.4,0.6-2c-0.1,0,0.1-0.1,0.4-0.3
	c0.1-3.4-0.1-6.5-0.4-9.7c-0.1,0,0.1,0,0.2-0.3c-0.3-1.1-0.6-1.8-1.2-2.4c-0.2,0.1,0.2-0.1,0.2-0.6c0-10.7,0.1-21.1-0.1-31.4
	c0-1.4-1.2-2.9-1.9-4.2c0,0.1,0-0.1-0.3-0.4c-3.4-0.1-6.5,0.1-9.7,0.4c0,0.1-0.1-0.1-0.4-0.1c-1.1,0.9-1.8,1.9-2.5,3
	c0.1,0-0.1,0-0.4,0.3c-0.4,6.7-0.6,13.2-0.5,19.7c0.2,0.1-0.2-0.1-0.5,0c-0.4,1-0.5,1.9-0.6,2.7c0,0,0,0-0.3,0.3
	c-0.4,2.2-0.6,4.1-0.6,5.9c-0.1,14-0.1,28.1-0.2,42.1c0,0-0.2,0-0.6,0c-0.5,0.4-0.6,0.8-0.8,1.2c-1.2,6.8-3.7,13.4,0.2,20.4
	c1.9,3.4,2.9,7.7,3.3,11.6c0.6,6.7-2.4,9.6-9.1,9.6c-9.3,0.1-18.7,0-28,0c-15.8,0-31.6,0-47.4,0c-6.7,0-8.8-2.2-8.4-8.9
	c0.6-9.6,5.9-17.1,11.8-24.2c1.2-1.5,2.8-2.7,3.7-4.3c0.7-1.2,1.3-3.7,0.7-4.2c-3.2-2.7-2.3-6.2-2.4-9.6c-0.2-4.5,0.8-9.2-2.5-13.1
	c-0.4-0.5-0.2-1.7-0.1-2.5c0.8-5.8,2.3-11.7,2.5-17.5c0.4-9.8,0.1-19.6,0.1-29.4c0-1.3-0.3-2.7,0.2-3.8c3.4-7,1-11.6-4.6-16.7
	c-19.7-17.7-23.7-40.5-20.4-65.6c1-7.8,1.6-15.6,2.4-23.4c0.4-3.9-1.4-5.2-5.1-4c-15.6,4.7-31.7,4-47.4,2.6
	c-11.8-1.1-23.2-6.5-32.8-14.2c-8.7-7-17.6-13.9-24.9-22.2c-12.1-14-25.6-27.1-34.9-43.4c-2.8-4.9-3.4-11.1-5.3-16.6
	c-0.4-1.3-1.5-3.1-2.6-3.4c-9.8-2-17.7-7.4-25.2-13.6c-10.2-8.5-17-19.7-23.7-30.8c-4.8-8-6.7-17.2-5.3-26.8c1-6.5,9.9-13.8,17-14.1
	c1.8-0.1,3.6,0,5.5,0c0.2-0.5,0.5-0.9,0.7-1.4C62.9,187.1,43,168,23.1,148.8c-0.8-4.1-1.6-8.9-2.7-13.7c-2.8-11,1.1-20,8.6-27.5
	c19-19.1,38.2-38,57.3-57.1c8.4-8.4,18.3-9.7,29.5-7c7,1.7,12.1,5.6,16.9,10.4c10.7,10.7,21.6,21.3,32.1,32.2
	c8.5,8.8,16.5,18.1,24.5,27.3c7.1,8.2,6.4,25.9-1.4,34.4c-0.7,0.7-0.8,2-0.9,3.2c0.3,0.2,0.4,0.2,0.1,0c-0.9,0.2-1.5,0.7-2.3,1.2
	c-0.1,0.1-0.3,0.3-0.6,0.4c-1.6,1.6-2.8,3.3-4.2,4.7c-12.5,12.6-25.1,25.1-37.6,37.8c-1.8,1.8-4.8,3.9-0.7,6.4c0-0.1,0,0.1,0,0.4
	c2.7,2.1,5.6,3.7,8,5.7c2.6,2.2,4.7,4.8,7.1,7.2c0.1-0.1-0.1,0.1-0.1,0.3c0.3,0.4,0.7,0.6,1,0.6c0-0.1-0.1,0.1-0.2,0.4
	c1.6,2.3,3.2,4.3,4.9,6.2c0-0.1-0.1,0.1-0.2,0.4c0.6,1.4,1.3,2.4,2.1,3.4c0-0.1-0.1,0.1-0.2,0.5c2.4,9.6,6.3,18.5,5,28.5
	c-0.1,0.8,0.5,1.6,0.9,2.4c0.1,0,0,0.1,0.2,0.4c4.2,1.4,8.1,2.4,12.2,3.4c0.1-0.1-0.1,0.1-0.1,0.4c4.1,4.2,8.2,8.1,12.4,11.9
	c0.1-0.1-0.1,0.1-0.1,0.3c0.3,0.4,0.7,0.6,1,0.6c0-0.1-0.1,0.1-0.2,0.4c2.8,3.6,5.7,6.8,8.8,10c0.1-0.1-0.1,0.1-0.1,0.3
	c0.3,0.4,0.7,0.6,1,0.6c0-0.1-0.1,0.1-0.2,0.4c2.8,3.6,5.7,6.8,8.8,10c0.1-0.1-0.1,0.1-0.1,0.4c0.3,0.4,0.7,0.6,1,0.6
	c0-0.1-0.1,0.1-0.2,0.4c2.2,2.3,4.5,4.3,6.9,6.2c0.1-0.1-0.1,0-0.1,0.3c0.3,0.4,0.7,0.6,1,0.6c0.1-0.1-0.1,0.1,0,0.4
	c1.6,1.1,3.2,1.8,4.8,2.5c0-0.1,0,0,0,0.4c2.2,1.1,4.4,1.8,6.6,2.4c0.1-0.1,0,0.1,0,0.5c3.2,1.4,6.3,2.4,9.5,3.3
	c0.1-0.1,0,0.1,0,0.4c1.3,0.7,2.5,1.1,3.8,1.4c0.1-0.1,0,0.1,0,0.4c1.3,0.7,2.5,1.2,3.8,1.5c0-0.1,0,0.1,0,0.5
	c3.2,1.4,6.3,2.4,9.5,3.3c0.1-0.1,0,0.1,0,0.5c5.7,1.7,11.3,3.3,17,4.1c1.5,0.2,3.9-1.8,4.8-3.4c0.8-1.4,2.8-4.1-0.6-5.7
	c-0.2-0.3-0.5-0.4-0.9-0.8c-0.4-0.4-0.7-0.6-1.1-0.6c0,0.1,0.1-0.1,0-0.4c-1.3-0.7-2.5-1.1-3.8-1.4c-0.1,0.1,0-0.1,0-0.4
	c-1.3-0.7-2.5-1.2-3.8-1.5c-0.1,0.1,0-0.1,0-0.4c-1.3-0.7-2.5-1.2-3.8-1.5c-0.1,0.1,0-0.1,0-0.4c-1.3-0.7-2.5-1.2-3.8-1.5
	c-0.1,0.1,0-0.1,0-0.4c-1.3-0.7-2.5-1.1-3.8-1.5c-0.1,0.1,0-0.1,0-0.4c-1.6-1.1-3.2-1.8-4.8-2.5c-0.1,0.1,0.1,0,0.1-0.3
	c-0.3-0.4-0.7-0.6-1-0.6c0,0.1,0.1-0.1,0-0.4c-2.9-2.9-5.9-5.4-8.6-8.1c-3.8-3.7-7.5-7.6-11.4-11.4c-0.1,0.1,0.1,0,0.1-0.3
	c-0.3-0.4-0.7-0.6-1-0.6c0,0.1,0.1-0.1,0.2-0.4c-0.9-1.7-1.9-3.1-3.1-4.4c-0.1,0.1,0.1,0,0.1-0.3c-0.3-0.4-0.7-0.6-1-0.6
	c0,0.1,0.1-0.1,0.2-0.4c-0.9-1.7-1.9-3.1-3.1-4.4c-0.1,0.1,0.1-0.1,0.1-0.4c-0.6-1.4-1.3-2.4-2-3.4c-0.1,0,0.1-0.1,0.1-0.4
	c-0.6-1.4-1.3-2.4-2-3.4c-0.1,0,0.1-0.1,0.1-0.4c-0.6-1.4-1.3-2.4-2-3.4c-0.1,0,0.1-0.1,0.1-0.4c-0.6-1.4-1.3-2.4-2-3.4
	c-0.1,0,0.1-0.1,0.1-0.4c-1.3-3.3-2.5-6.2-3.9-9.1c-0.1,0.1,0.1-0.1,0.1-0.4c-1-3-1.9-5.7-2.9-8.6c-0.2-0.3-0.5-0.4-0.9-0.9
	c-2.3-1.1-4.5-1.8-6.7-2.5c-0.1,0.1,0.1-0.1,0-0.4c-3.5-3.6-6.9-6.8-10.5-10c-0.1,0.1,0.1-0.1,0.1-0.4c-2.6-6.6-3.1-13.1-3-19.8
	c0.2-14,0.1-28.1,0-42.1c0-1.7-1.1-3.4-1.8-5c0,0.1,0.1-0.1,0.2-0.4c-0.4-1.3-0.9-2.3-1.4-3.2c0,0-0.1,0.1-0.1,0.1
	c3.3,1,5.8,0.2,7.3-3.2c2.7-6.1,7.8-9.7,13.9-12.1c2.5-1,4.1-2.2,4.7-5.2c7-32.2,23.4-58.7,48.4-80.2C275.9,42,290,34.2,305.2,28.5
	c12.7-4.8,25.7-9.5,39-12.1c11.5-2.3,23.6-2.3,35.5-2c11.1,0.3,22.3,1.7,33.2,3.7c7.5,1.3,14.7,4.2,21.9,6.8
	c8.7,3.2,17.4,6.5,25.8,10.3c13.7,6.3,25.2,15.7,36,26.1c5.1,4.9,10.9,9.3,15.3,14.7c4.3,5.3,7.3,11.6,10.6,17.7
	c7.1,13,12.4,26.6,15.1,41.3c0.3,1.4,2.1,3,3.6,3.6c12.1,5,18.4,14.2,18.4,27.4c0,14.4,0.3,28.7-0.1,43.1
	c-0.4,13.5-7.3,22.1-20.1,26.6c-1.3,0.5-2.6,2.5-3,4c-4,13.3-8.5,26.2-16.5,37.7c-2.8,4.1-4.6,8.9-6,13.5c-1.4,1-2.8,1.9-4.1,3
	c-5.1,4.1-9.8,9-15.4,12.3c-5.7,3.4-12.4,4.9-18.4,8c-2.6,1.3-4.7,4-6.2,6.5c-0.5,1,1.3,3.7,2.6,5c0.9,0.9,2.9,1.3,4.3,1.2
	c11.5-0.6,22,2,32.7,6.9c16.7,7.7,30.6,18.5,43,31.8c6.1,6.5,12.4,12.5,14.3,21.7c1.7,8,1.6,15.8-1.6,23.5
	c-4.7,11.6-11.7,21.8-20.6,30.7c-8.2,8.3-16.2,16.7-28,20c-0.9,0.3-1.4,1.8-2.6,3.1c-3.1,2.9-5.7,5.4-8.3,8c0,0,0.1,0.2-0.3,0
	c-0.7,0-1,0.2-1.6,0.3c-0.5,0.2-0.7,0.4-0.9,0.6c0,0,0,0.1-0.4,0.1c-0.5,0.3-0.7,0.6-0.8,1c-0.4,0.2-0.8,0.4-1.6,0.7
	c-0.7,0.4-0.8,0.8-1,1.1c0,0,0,0.1-0.3,0c-1.7,1.2-3,2.5-4.4,3.7c0,0,0.1,0.2-0.3,0.1c-1.8,0.2-3.1,0.6-4.4,0.9c0,0,0,0.1-0.4,0
	c-1.2,0.3-2,0.7-2.7,1.1c-0.3,0-0.5,0.1-1,0.5c-0.9,0.6-1.4,0.9-1.8,1.3c0,0-0.3-0.1-0.8-0.2c-4,0-7.5,0.1-11,0.2
	c0,0-0.3-0.1-0.5-0.4C468.1,482.3,465.6,483,463.9,485.9 M176.1,116.1c0,0,0.1,0,0-0.6c-0.3-0.2-0.6-0.3-0.9-0.4
	c0,0,0.1-0.1,0.1-0.7c-1.6-1.4-3.1-2.8-4.9-4.2c0,0,0.2-0.1,0.1-0.7c-1.2-1-2.5-2.1-4-2.8c0,0,0.3-0.3,0.2-0.9
	c-1.6-1.4-3.1-2.7-4.9-3.9c0,0,0.2-0.2,0.1-0.7c-0.3-0.1-0.6-0.3-0.9-0.4c0,0,0-0.1-0.1-0.6c-0.3-0.1-0.6-0.2-1-0.1
	c0,0,0.1-0.2,0-0.7c-0.3-0.1-0.6-0.2-1-0.2c0,0,0.1-0.1,0.1-0.6c-0.3-0.1-0.6-0.3-1-0.3c0,0,0.1-0.1,0.1-0.7c-0.3-0.1-0.6-0.3-1-0.3
	c0,0,0.1-0.1,0.1-0.7c-0.3-0.1-0.6-0.3-1-0.3c0,0,0.1-0.1,0.1-0.7c-0.3-0.1-0.6-0.3-1-0.3c0,0,0.1-0.1,0.1-0.7
	c-0.3-0.1-0.6-0.3-1-0.3c0,0,0.1-0.1,0.1-0.7c-0.3-0.1-0.6-0.3-1.1-0.3c0,0,0.1,0,0-0.6c-0.4-0.2-0.7-0.4-1.4-1
	c-2.9-2.8-6-5.5-8.8-8.4c-7.7-7.7-15-15.8-23-23.1c-3-2.7-7.6-3.8-12.2-5.7c-6.1,0.4-11.6,2.1-16.1,6.6
	c-14.7,14.6-29.5,29.1-44.1,43.8c-5.1,5.2-9.6,11.1-14.8,17.4c0.2,4.6-0.1,9.3,0.9,13.7c1.5,7.1,7.5,11.3,12.4,16.1
	c15.8,15.6,31.4,31.6,47.4,47c7.2,6.9,14.8,8.4,22.7,2.2c12.5-9.9,23.9-21.2,35.8-32c2.3-2.1,4.4-4.5,6.6-6.6
	c8.8-8.3,18.2-16.2,22.6-27.9c1.1-2.9,0.4-6.5,1.1-10.3c-0.5-0.9-1-1.7-1.6-2.5c0,0,0.1,0,0.2-0.7c-0.9-1.1-1.8-2.3-2.7-3.4
	c0,0,0-0.1-0.1-0.6c-0.3-0.1-0.6-0.2-1-0.2c0,0,0.1-0.2,0-0.7C176.8,116.3,176.5,116.1,176.1,116.1 M290.1,473.5
	c0,0,0.5,0.1,0.5,0.7c6,5.5,12.7,9.8,20.6,11.9c17,4.6,34.6,3.8,51.9,4c19.2,0.3,38.4-0.9,57.6-1.2c10.3-0.2,20.3-1.5,29.4-6.5
	c7.3-4,14.8-8.4,18.8-17.1c6.6-8.9,9-19,8.2-30c-0.8-11.4-1.1-22.8-2.2-34.2c-1.1-11.1-3.1-22.2-3.9-33.6c3.2,0.1,6.3,0.2,9.6,1.1
	c0.4,2.5,0.8,5.1,1.2,8.1c0,0,0.2,0.4,0,1.1c0.1,0.5,0.2,0.9,0.2,1.7c0,0.3,0.2,0.5,0.3,1.3c1.2,1.7,2.3,3.4,3.8,5.5
	c0.7,0.2,1.3,0.3,2.6,0.8c3.6,1.8,7.2,3.6,10.5,6c-4.1,5.4-8.2,10.7-13,16.6c0.2,5.2,0.3,10.3,0.3,16c0.1,0.7,0.1,1.5-0.2,2.8
	c0.1,1.1,0.3,2.2,0.3,3.6c0,0,0.1,0.3,0,1c0.4,0.2,0.7,0.5,0.9,1c0,0,0.1,0.2-0.1,0.8c0.4,0.5,0.8,1,1.2,1.6c0,0,0,0.1-0.1,0.8
	c3,4,5.7,8.3,9.1,11.9c1.8,1.9,4.8,3.1,7.4,3.5c7.2,1,13.5-1.6,18.9-6.2c6.1-5.4,12-11,17.8-16.8c2.5-2.5,4.6-5.5,6.9-8.4
	c-5.4-1.2-9.8-2.1-14.5-3.6c-9.1-4.4-15.3-14.5-14.1-25.1c1.4-12.2,8-20.6,20.5-23.5c-5-7.4-21.8-20.6-32.2-25.8
	c-0.6-0.1-1.3-0.3-2.1-0.1c0,0,0.2-0.3-0.3-0.8c-5.6-1.7-11.2-3.4-17.2-5.7c-4.9-0.5-9.7-0.9-15-1.4c2.3,10.7,4.4,20.3,5.9,30.7
	c-4.2,1.6-7.6,0.1-8.7-3.8c-1.9-6.6-2.5-13.6-4.3-20.3c-1.2-4.8-3.4-9.3-5.3-14.3c-0.2-0.4-0.4-0.8-0.4-1.8
	c-1.2-5.7-2.3-6.1-7.5-5.2c-16,2.8-31.9,6.7-48,7.5c-21.6,1.1-43.4,0.3-65.1-1c-14.3-0.9-28.4-3.9-42.6-6.3c-2.8-0.5-4.2,0-5,2.5
	c-0.9,2.9-1.7,5.8-2.9,9.4c-0.4,1.3-0.8,2.7-1.7,4.3c-2.6,10.8-5.6,21.5-7.5,32.4c-2.5,14.3-4.1,28.8-6.2,43.9
	c-0.1,1-0.2,1.9-0.2,2.9c0,0-0.1,0-0.5,0.7c-0.1,6.8-0.3,13.5-0.2,20.2c0.1,2.9,1,5.8,1.3,9.4c1.7,4.8,3.5,9.6,5.4,15.1
	C283.5,465.2,286.7,469.2,290.1,473.5 M530.9,185.1c0.6,7.2-3.8,14.6,1.2,21.8c2.1-3.2,5.5-6.1,0.4-8.2c0-2.7,0.1-4.7,0-6.8
	c-0.2-2.5-0.7-4.9-0.4-7.9c0-10,0-20,0-29.9c-0.6,0-1.1,0-1.7,0C531.6,164.3,529.5,174.4,530.9,185.1 M529.6,390.1
	c-0.1,0.4-0.1,0.8-0.6,1.8c-1.4,11.4,8.4,17.8,15.8,18.3c7.7,0.5,14.4-7.3,14.3-16.8c-0.7-8.3-6.3-15-13.4-16
	c-6.4-0.9-12.7,3.5-16.3,11.3c-0.1,0.1-0.2,0.2-0.2,0.3C529.4,389.1,529.5,389.3,529.6,390.1 M550.1,201.1c-0.2-7.5-0.3-15-0.2-23.3
	c0-4.7-0.1-9.4-0.1-14.1c-0.1-6.9-5.8-14.3-11.6-14.9c0,15.4,0,30.8-0.2,47.1c0.1,3.5,0.1,7,0,11.4c0,6,0,12,0,18.3
	C546.6,223,551,211.9,550.1,201.1 M272.7,359.4c0.2-1.3,0.4-2.5,0.9-4.6c0.3-1.8,0.7-3.6,1.2-6c0.9-2.6,1.7-5.2,2.6-7.8
	c-2.3-0.7-3.9-1.4-5.5-1.7c-1.6-0.3-3.4-0.6-4.9-0.3c-9.7,2-13.9,7.1-14.9,18.8c0.9,9.9,6.9,16.4,17.4,17.9
	C270.3,370.5,271.3,365.3,272.7,359.4 M212.2,148.4c-2.8,2.4-6.8,4.3-8.1,7.4c-1.9,4.7-1.8,10.2-3,16.1c0,9-0.5,18,0.1,27
	c0.4,6.5,1.6,13,3.4,19.3c1.2,4.1,4.1,7.6,9.1,8.3c0-2.9,0-5.3,0-7.8c0-21.3,0.1-42.6,0.1-63.9C213.9,152.8,213.3,150.7,212.2,148.4
	 M242.4,364.7c0-3.8-0.1-7.5,0.2-12c1.7-8.4,5.9-15.2,13.8-20.3c-13.8-6-27-11.7-40-17.4c-2-0.9-4-2-5.4-3.6
	c-5.7-6.5-11.2-13.3-16.7-19.9c-5.5-6.5-10.9-13.1-16.5-19.4c-3.4-3.8-12.1-4.4-13.9-0.9c-4.8,9-12.1,15.1-21.7,19.4
	c-0.8,0.3-1.6,0.6-2.3,1.1c0,0-0.1-0.2-0.8,0c-3.7,1.1-7.4,2.3-11.5,3.5c0.2,5.8,1.7,11.4,5.5,15.9c12.3,14.7,24.7,29.3,37.3,43.7
	c7.2,8.3,15.2,16.1,25.7,20.1c9.5,3.5,19.2,6.9,29.1,8.7c8.7,1.5,17.7,0.6,26.7-2.7c-2.6-3.7-5-7.2-7.7-11.2
	C243.6,368.3,243,366.9,242.4,364.7 M407.9,586.4c-5.7,4.2-10,9.4-12.7,15.9c-1.4,3.3-1.2,5.1,3,5c9.1-0.2,18.3-0.3,28.3-0.3
	c13,0,26,0,39.2,0C461.8,587.5,430.7,569.4,407.9,586.4 M344.1,586.6c-5.3-3.5-10.5-7.4-17.3-7.5c-14.4-0.3-26.3,4.8-35.3,16.1
	c-2.6,3.2-4.2,7.2-6.7,11.5c15.9,0,30.4,0,45.8,0.3c9.2,0,18.3,0,28.2,0C355.6,598.4,351.9,591.5,344.1,586.6 M358.3,502.5
	c-1.2-0.7-2.4-2-3.7-2c-6.8-0.2-13.5,0-21-0.3c-11.1-1.7-22.1-3.4-33.8-5.2c-0.4,9.5-0.9,19.8-1.7,30.8c0.1,16.3,0.2,32.6,0.3,50.3
	c4.3-2.4,6.9-3.8,10.3-5.3c13.2-3.6,25.9-3.1,38.3,4.5c2.3,1.5,4.5,3,7.2,4.8C358.6,554.2,357.9,528.8,358.3,502.5 M74.4,242.2
	c5.2,7.8,9.6,16.1,15.6,23.2c11.7,13.6,26.5,20.6,44.9,16.5c12.2-2.8,22.9-15.8,23.3-27.7c1.8-15.3-4.9-27.3-14.9-37.9
	c-2.1-2.3-5.2-4.3-8.9-2.4c-3.1,1.6-5.4,3.8-5.1,7.7c0.2,2.4,0.5,4.9,1.2,7.2c1.1,3.9,2.6,7.8,4.3,13.1c-7.1,0-13.2-0.4-19.2,0.1
	c-7,0.5-12.5-1.7-17.2-6.8c-4.3-4.6-8.8-9-13.2-13.5c-3.5-3.6-7.9-4.3-12.1-2.4c-4.3,1.9-4.3,6.4-3.4,10.3
	C70.8,233.7,72.8,237.6,74.4,242.2 M355.2,317.5c15.5-0.1,31-0.1,47.3-0.2c1.6-0.2,3.1-0.3,4.7-0.4c22.4-1.9,44.6-5.1,65.5-13.6
	c19.9-8.1,34.6-22.3,44.7-42.1c2.4-6.3,5.4-12.5,7.3-18.9c6.5-22.1,3.1-44.8,3.6-68.1c-0.4-12.7,0.4-25.6-1.3-38.1
	c-3.1-23-14.2-42.5-29.6-59.7c-12-13.3-26-23.9-42-32.1c-22.7-11.8-46.8-18-72.2-19.7c-19.9-1.3-39.2,1.9-58.1,8
	c-24.3,7.8-46,19.6-64.1,37.7c-13,13-23.4,27.7-30.1,45c-4.5,11.5-7.1,23.2-7.1,36.2c0,24.2-0.4,48.3,0,72.5
	c0.2,10.7,3.4,21.1,8.2,31.5c0.8,1.7,1.6,3.4,2.5,5.1c11.6,21.4,27.8,38.1,51.4,45.4c13.5,4.2,27.6,6.3,41.6,8.7
	C336.3,316.2,345.4,316.4,355.2,317.5 M118.1,223c0.6-2.9,1.2-5.8,1.6-7.3c-7.8,0.5-15.9,1-24.5,1.6c7.5,6.4,12.8,15.6,24.9,15.7
	C119.3,229.3,118.7,226.5,118.1,223 M491.3,457.2c-2-1.8-3.9-3.7-5.5-5.2c-3.3,7.5-6.5,15-9.9,22.7c0.8,0.2,1.9,0.8,2.6,0.5
	c6.6-2.6,12.2-6.5,15.2-13.1C494.1,461.1,492.5,459.2,491.3,457.2z"/>
    <path class="st1" d="M408.6,572.9c-3.4,2.4-6.9,4.8-11,7.7c-1-8.5-2.3-16.5-2.8-24.6c-0.9-14.2-1.3-28.5-1.7-42.7
	c-0.1-3.6,0-7.2,0.7-10.8c0.2-1,2.4-2.2,3.7-2.3c5.5-0.2,11,0.6,16.4-0.1c11-1.5,22.5-0.2,33.1-5.3c-0.5,2.1-4,3.4-0.3,6
	c1.8-1,3.6-2,5.7-3.2c-2-1.4-3.1-2.2-4.3-3c1.6-0.7,3.2-1.5,5.1-2.1c-0.2,7.2-0.7,14.2-1.5,21.9c-1.7,0.9-3.2,1.2-5.4,1.7
	c1-1.6,2-2.6,1.8-3.1c-1-2.4-2.3-4.8-3.6-7.1c-0.3-0.6-1.5-1.3-2-1.1c-2,0.9-3.9,2.1-6.2,3.1c-7.7,3.1-15.3,5.5-22.1,9.4
	c-3.4,1.9-7.4,6.6-7.4,10C406.7,542.5,407.9,557.7,408.6,572.9z"/>
    <path class="st2" d="M436.7,507.9c1.9-1.1,3.8-2.2,5.8-3.1c0.4-0.2,1.6,0.5,2,1.1c1.3,2.3,2.6,4.6,3.6,7.1c0.2,0.5-0.8,1.4-1.8,3.1
	c2.2-0.5,3.7-0.9,5.4-1.3c0.5,1.1,0.8,2.4,1.2,4.2c-0.7,3.3,2.2,7.2-2.2,8.5c0.8,0.6,2.6,1.3,2.7,2.2c0.5,3.7,0.8,7.4,0.6,11.1
	c-0.6,11.2-1.4,22.4-2.1,33.6c-2.5-0.9-5-1.9-7.4-3.3c0.1-2.7-0.1-5,0-7.3c0.3-8.7,0.9-17.4,0.8-26.1c-0.1-8.5-0.9-16.9-1.3-25.4
	c-0.1-3.2-2.3-4.1-4.3-3.1C437.6,510.2,437.7,508.2,436.7,507.9z"/>
    <path class="st1" d="M464.3,486c1.4-3,3.9-3.8,7.1-2.4C469.2,484.7,466.9,485.4,464.3,486z"/>
    <path class="st1" d="M472.2,484.3c3.3-0.4,6.7-0.5,10.6-0.5C479.7,484.2,476,484.4,472.2,484.3z"/>
    <path class="st1" d="M494.8,480.2c1-1.4,2.3-2.7,4-3.9C497.8,477.7,496.5,479.1,494.8,480.2z"/>
    <path class="st1" d="M458.6,489.8c1-1.2,2.5-2.2,4.2-3.2C461.8,487.7,460.4,488.8,458.6,489.8z"/>
    <path class="st3" d="M469.7,589.8c-0.9-0.5-1.8-1.4-2.7-2.6C468,587.7,468.9,588.6,469.7,589.8z"/>
    <path class="st3" d="M467.1,586.6c-1-0.6-1.9-1.6-3-2.8C465.1,584.4,466.1,585.3,467.1,586.6z"/>
    <path class="st1" d="M490.1,481.2c0.9-0.5,2.3-0.9,3.9-1.1C493.1,480.5,491.8,480.9,490.1,481.2z"/>
    <path class="st0" d="M187.2,151.4c0.5,0.5,1.1,1,1.8,1.8c0.2,0.2,0.2,0.2,0.1-0.1c-0.6-0.7-1.2-1.2-1.8-1.6
	C187.4,151.4,187.3,151.4,187.2,151.4z"/>
    <path class="st1" d="M487,482.2c0.4-0.5,1.2-0.9,2.3-1.2C488.9,481.5,488.2,481.9,487,482.2z"/>
    <path class="st1" d="M484.2,484.1c0.1-0.5,0.6-0.9,1.4-1.3C485.5,483.3,485,483.7,484.2,484.1z"/>
    <path class="st4" d="M504.2,472.9c0.3-0.2,0.7-0.3,1.3-0.4c-0.1,0.5-0.4,0.9-1,1.1C504.2,473.3,504.2,472.9,504.2,472.9z"/>
    <path class="st3" d="M463.9,583c-0.5,0.3-0.7,0.1-0.8-0.5C463.5,582.4,463.7,582.6,463.9,583z"/>
    <path class="st3" d="M463.2,582c-0.3,0.1-0.6,0-0.9-0.4C462.6,581.4,462.9,581.6,463.2,582z"/>
    <path class="st3" d="M462.3,581c-0.3,0.1-0.6-0.1-0.8-0.5C461.7,580.4,462,580.5,462.3,581z"/>
    <path class="st5" d="M365,575.4c-0.1-0.3,0-0.7,0.4-1C365.6,574.7,365.4,575,365,575.4z"/>
    <path class="st3" d="M470.7,591.7c-0.3,0-0.6-0.2-0.8-0.8C470.2,590.8,470.5,591.1,470.7,591.7z"/>
    <path class="st1" d="M504,472.9c0.2,0,0.2,0.5,0.2,0.7c-0.2,0.2-0.4,0.2-0.9,0.1C503.3,473.2,503.5,473,504,472.9z"/>
    <path class="st1" d="M453.9,492.5c-0.1-0.4,0.1-0.7,0.5-1C454.6,491.9,454.4,492.2,453.9,492.5z"/>
    <path class="st1" d="M456.6,491.6c-0.2-0.4,0-0.7,0.5-1.1C457.3,490.8,457.1,491.2,456.6,491.6z"/>
    <path class="st1" d="M502.1,474.5c-0.1-0.4,0-0.7,0.5-1C502.8,473.9,502.6,474.3,502.1,474.5z"/>
    <path class="st1" d="M499.5,476.4c-0.1-0.4,0.1-0.8,0.5-1C500.1,475.8,500,476.1,499.5,476.4z"/>
    <path class="st6" d="M224.1,150.6c-0.5-12.3,2.2-24,6.6-35.5c6.7-17.3,17.1-32,30.1-45c18.1-18.2,39.9-30,64.1-37.7
	c19-6.1,38.3-9.3,58.1-8c25.4,1.7,49.5,7.9,72.2,19.7c15.9,8.3,30,18.8,42,32.1c15.4,17.2,26.5,36.7,29.6,59.7
	c1.7,12.5,1,25.4,0.9,38.3c-0.6-3.7-0.9-7.5-1.1-11.6c-6.2,0-11.9,0.2-17.5-0.1c-3.7-0.2-5,1.2-4.9,4.9c0.2,13,0.6,25.9-0.2,38.8
	c-0.4,7-2.4,14.2-4.8,20.9c-3.9,10.9-11.2,19.4-20.2,26.7c-10.2,8.3-21.8,12.8-34.6,12.9c-42.8,0.4-85.6,0.1-128.4,0.2
	c-20.2,0.1-37.2-6.4-51.1-21.6c-11.5-12.5-17.6-26.9-17.7-43.9c0-11.2,0-22.4,0-33.6c0-1.7-0.2-3.3-0.3-4.9c-7.7,0-14.9,0-22.2,0
	C224.5,158.8,224.3,154.7,224.1,150.6 M500.4,144.3c0.1,0.3,0.3,0.5,0.4,0.8c-0.1-0.4-0.2-0.9,0-1.9c0.3-0.6,0.9-1.4,0.8-1.9
	c-1.9-6.8-3.9-13.6-6-21c-9.3-17.8-24.7-27.4-43.5-32.4c-1.7-0.5-3.6-0.2-5.8-0.9c-1-0.3-2.1-0.8-3.1-0.8
	c-47.3,1.1-94.7-2.4-142.7,1.5c-0.8,0.3-1.5,0.5-2.4,0.8c0,0-0.1,0-0.7,0c-1.5,0.2-3.2,0.1-4.5,0.7c-10.4,4.7-20.5,9.9-28,18.9
	c-5.2,6.3-9.8,13-11.8,21.7c-0.9,4.5-1.8,9-2.7,13.9c1.6-0.7,2.6-1.1,4-1.6c0,21.7,0,42.9,0,64.1c0,2.3,0.6,4.5,1.2,7.5
	c5.1,26.6,27.7,46.3,56.6,46.6c35.4,0.3,70.8,0.1,106.1,0c10.5,0,21.2,0.2,31.6-1.2c19.7-2.5,33.1-14.3,41.7-31.7
	c6.2-12.4,5.8-25.7,5.6-39.1c-0.2-14.8,0-29.6,0.3-44.8C498.7,143.7,499.5,143.7,500.4,144.3z"/>
    <path class="st7" d="M274.7,412.2c2-14.4,3.5-28.9,6-43.2c1.9-10.9,5-21.6,8.2-32.6c1.9-0.1,3.2-0.2,4.4,0
	c15.3,2.5,30.5,5.5,45.9,7.5c19.7,2.6,39.4,3.8,59.3,1.8c4.7-0.5,9.3-1,14-1.5c8.7-0.9,17.3-1.7,26.8-2.6c-0.8,6.9-2,13.3-2.3,19.6
	c-1,20.3-3.3,40.4-7.4,60.3c-2.6,12.8-9.2,22.6-20.4,28.9c-9.4,5.2-19.5,9.2-29.3,13.5c-1.4-2-2.8-3.7-4.5-5.8
	c-3,6.6-6.1,6.1-12.5-0.7c-1.8,0.9-3.4,2.3-4.5,2c-3.9-0.9-7.4,0-10.8,1.6c-0.7,0.3-1.6,0.4-2.3,0.3c-4.4-0.7-8.7-1.5-13-2.2
	c0.2-0.4,0.7-1.4,0.7-1.4c-5-1.7-9.6-4.4-14.4-4.6c-5-0.2-8-5-13.8-3.9c-3.4,0.6-6.9-6.3-11.5-5.8c-6,0.7-7.9-4.8-12.2-6.2
	c0.2-0.9,0.5-1.9,0.8-3.1c-2.5,1.2-4.6,2.3-6.7,3.3c-0.5-0.2-0.9-0.5-1.4-0.7c4.2-4.1,2.6-8.1,0.9-12.1c-0.2-0.4,0.6-1.2,0.5-1.7
	c-0.5-2.3,2.2-5.1-0.9-7.1c0,0,0.1,0,0.4-0.1C274.9,414.5,274.8,413.4,274.7,412.2 M349,367.9c-3.2,6.3-4.6,12.9-4.4,19.9
	c0.6,22.9,27.1,36.6,44.2,26.8c0.9-0.5,1.7-0.9,3.2-1.5c2.3-1.9,4.7-3.8,7.6-6c3.8-4.6,6.1-9.9,7.7-16.2c-0.2-4-0.5-8-0.7-12.7
	c-1.5-7.1-4.7-13.3-10.3-17.9C382.4,348.7,359.3,352,349,367.9z"/>
    <path class="st8" d="M224.1,151c0.4,3.7,0.6,7.8,0.8,12h22.3c0.1,1.6,0.3,3.2,0.3,4.9c0,11.2,0,22.4,0,33.6c0,17,6.2,31.3,17.7,43.9
	c13.9,15.1,30.9,21.7,51.1,21.6c42.8-0.2,85.7,0.2,128.5-0.2c12.8-0.1,24.4-4.5,34.6-12.9c9-7.3,16.3-15.9,20.2-26.7
	c2.4-6.7,4.4-13.8,4.8-20.9c0.8-12.9,0.3-25.9,0.2-38.8c0-3.7,1.2-5.1,4.9-4.9c5.7,0.2,11.4,0.1,17.6,0.1c0.3,4.1,0.5,7.9,1,12
	c0,22.7,3.4,45.4-3.1,67.5c-1.9,6.5-4.8,12.6-7.8,19c-2.1,0.6-4,0.8-5.2,1.8c-4,3.2-7.8,6.8-11.8,10c-1.7,1.4-3.7,2.4-5.8,3.7
	c-0.3-0.4-0.9-1.3-1.5-2.2c0.4,0.4,0.7,0.9,1.1,1.3c-3,0.2-6.1,0.4-9.1,0.6c0.9,0.9,1.8,1.9,2.6,2.8c-1.5,1.3-3,2.6-4.6,3.8
	c-0.7,0.5-1.9,1.4-2.1,1.2c-3.2-2.9-3.6,0.3-4.8,2c-1.6,2.1-2.7,4-6.4,3.1c-2.5-0.6-5.7,1.5-8.5,2.5c0,0,0-0.8,0-0.5
	c-4,1.5-8.2,3.2-12.3,4.8c-0.1-0.2,0.3,0.6,0.9,2.2c-1.5-1-2.3-1.6-3.2-2.2c-0.2,0.8-0.4,1.5-0.7,2.4c-5-2.8-16.1-1-17.1,2.4
	c-1.4,0.1-3.6-0.2-3.9,0.4c-2.3,5.4-5.2,1.5-7.9,0.7c0,0.4,0,0.8-0.1,1.2c-1.7,0-3.5,0-5.2,0c0,0,0,0-0.2-0.2
	c-3.6,0.5-7,1.2-10.5,1.9c0,0.1-0.1-0.5-0.6-2.1c-0.7,2.2-1.1,3.3-1.6,4.8c-0.6-1.7-1-3-1.5-4.5c-1.5,1.6-2.8,3.1-4.1,4.5
	c-0.6-0.3-0.6-0.3-1.2-0.6c0.2-0.9,0.4-1.8,0.8-3.6c-3.3,1-6,1.8-8.7,2.7c0,0,0,0-0.1-0.3c-5.5-2.8-10.8,0-16.6,0
	c-1-0.9-2.5-2.2-4-3.6c-3.7,4.4-9.3-0.8-13,2.9c0.2-0.5,0.4-1.1,0.5-1.4c-3.3,0.2-6.3,0.3-9.3,0.5c-0.1-1.1-0.3-2.1-0.3-2.7
	c-4.1,0.3-7.8,0.7-11.6,1c-0.4-0.8-1-1.8-1.8-3.3c-0.5,1.6-0.9,2.6-1.5,4.2c-1.4-1-2.5-1.8-3.5-2.5c-0.5,0.8-0.9,1.4-0.9,1.4
	c-1.2-1.8-2.3-3.5-3.7-5.7c-0.6,2.1-1,3.4-1.7,5.9c-3.4-5.4-7-5.2-9.6-2.5c-0.9-1.3-1.7-3.6-2.4-3.6c-3.4,0.1-6.1-0.7-8-3.7
	c-0.1-0.2-1,0-1.7,0c0.5,1.2,0.8,2,1.1,2.8c-0.5,0.4-0.5,0.4-0.9,0.9c-3.7-2-7-5.4-11.5-5c0.8-0.3,1.6-0.6,2.5-0.8
	c0-0.4,0-0.4-0.1-0.8c-3.7-0.7-7.4-1.3-11.2-2c-0.2,0.6-0.4,1.2-0.9,2.4c-1-2.6-3.9-4.6-4.1-5.4c-1.9-5.6-6.4-4.3-9.1-4.8
	c-2.8-3.1-5.1-5.6-7.4-8.2c-0.1-0.2-0.2-0.2-0.3-0.3c0.1,0.1,0.2,0.3,0.3,0.7c-1,2.9-1.9,2.6-2.8,0.2c-0.6-1.7-1.2-3.4-1.9-5.6
	c-0.6,1.2-1,1.8-1.3,2.5c-1.2-0.5-2.6-0.8-3.6-1.6c-1.2-1-2-2.4-3-3.6c1.3-0.1,2.6-0.2,4.1-0.3c-0.4-4.9-4-6-8.5-6.1V254
	c-1.5,0.2-2.7,0.4-3.9,0.6c-4.8-9.7-8-20.1-8.2-30.8C223.4,199.7,223.8,175.5,224.1,151 M422.1,299.8
	C422.1,299.8,422.2,299.7,422.1,299.8z"/>
    <path class="st9" d="M108.6,54.6c3.8,1.8,8.4,2.9,11.4,5.6c8,7.3,15.4,15.4,23,23.1c2.9,2.9,5.9,5.6,9.1,9c0.6,0.7,0.9,0.9,1.3,1.1
	c0,0-0.1,0-0.1,0.3c0.4,0.4,0.7,0.5,1,0.7c0,0-0.1,0.1-0.1,0.3c0.4,0.4,0.7,0.5,1,0.6c0,0-0.1,0.1-0.1,0.3c0.4,0.4,0.7,0.5,1,0.6
	c0,0-0.1,0.1-0.1,0.3c0.4,0.4,0.7,0.5,1,0.6c0,0-0.1,0.1-0.1,0.3c0.4,0.4,0.7,0.5,1,0.6c0,0-0.1,0.1-0.1,0.3c0.4,0.4,0.7,0.5,1,0.6
	c0,0-0.1,0.1-0.1,0.3c0.4,0.3,0.7,0.4,1,0.6c0,0-0.1,0.2,0,0.4c0.4,0.3,0.7,0.4,1,0.5c0,0,0,0.1,0,0.3c0.3,0.4,0.6,0.5,0.9,0.6
	c0,0-0.2,0.2-0.1,0.4c1.7,1.6,3.3,3,4.8,4.3c0,0-0.3,0.3-0.1,0.5c1.4,1.2,2.6,2.2,3.9,3.2c0,0-0.2,0.1-0.1,0.4
	c1.6,1.7,3.2,3.1,4.7,4.6c0,0-0.1,0.1-0.1,0.3c0.4,0.4,0.7,0.5,1,0.7c0,0-0.1,0-0.1,0.3c0.4,0.3,0.7,0.5,1,0.6c0,0-0.1,0.2,0,0.4
	c0.4,0.3,0.7,0.4,1,0.5c0,0,0,0.1,0,0.4c0.9,1.5,1.8,2.6,2.7,3.7c0,0-0.1,0-0.1,0.3c0.4,1.1,0.7,1.9,1.1,2.6
	c-0.2,3.3,0.5,6.9-0.6,9.9c-4.4,11.7-13.8,19.6-22.6,27.9c-2.3,2.1-4.3,4.5-6.6,6.6c-11.8,10.8-23.2,22.1-35.8,32
	c-7.9,6.3-15.5,4.7-22.7-2.2c-16.1-15.4-31.6-31.3-47.4-47c-4.9-4.8-10.9-8.9-12.4-16.1c-1-4.4-0.6-9.1-0.4-14
	c6.6-5.9,12.7-11.3,18.7-17.1c13.2-12.7,26-25.8,39.5-38.1c4.9-4.4,9-11.2,17.2-10.5C108.7,55.7,108.7,55.2,108.6,54.6 M125.1,168.9
	c5.4,2.6,13.6-0.6,15.5-6.2c0.1-0.2-0.6-0.5-0.6-1.5c2.2-4.8,0.4-8.7-3-11.9c-3.2-3-7.2-4.3-11.7-2.6c-1.3,0.5-3.4,0.7-4.3,0
	c-5.6-4.7-11.9-8.5-10.9-18.1c0.7-5.9,3-9.5,6.9-13c3.2-2.8,6.4-3.6,10.7-2.6c6.4,1.5,12.5-3.3,13.5-9.5c0.8-5.5-3.5-11.8-8.8-12.8
	c-6.2-1.1-12.9,2.7-13.6,8.8c-0.5,4.3-2.5,6.6-5.5,9.1c-6.7,5.5-6.6,5.6-13.1-0.2c-2.8-2.5-5.6-4.5-5.1-9.2c0.4-4.1-5.3-8.4-9.8-8.6
	c-5.1-0.2-9,2-11.1,6.5c-1.9,4.3-1.3,8.3,1.5,11.9c2.9,3.6,7.6,4.7,12.3,3.5c1.5-0.4,3.6-0.3,4.7,0.5c6.7,4.8,12.7,10.1,10.3,19.7
	c-0.2,0.9,0.2,2-0.1,2.8c-0.5,1.4-1.1,2.9-2.1,3.9c-1.7,1.8-3.9,3.1-5.6,4.9c-2.4,2.5-4.7,4-8.2,2c-1.2-0.7-3.1-0.6-4.5-0.3
	c-5.2,1.1-9.1,5.9-9.6,11.4c-0.4,4.1,2.4,8,7.6,10.2c2.6,1.1,5.2,4,8.2,0.4c2.1-2.5,6.3-4.7,6.3-7c0-5.8,4-8.2,7.2-11.5
	c1.1-1.1,2.5-2.4,3.9-2.7c3.2-0.7,12.1,6.6,12.1,9.9C118.2,162.3,121,165.5,125.1,168.9z"/>
    <path class="st8" d="M379.9,464.3c9.8-4.5,19.9-8.5,29.2-13.8c11.1-6.2,17.8-16.1,20.4-28.9c4-19.9,6.4-40,7.4-60.3
	c0.3-6.4,1.5-12.7,2.3-19.6c-9.5,0.9-18.1,1.7-26.8,2.6c-4.7,0.5-9.3,1-14,1.5c-19.8,2-39.6,0.8-59.3-1.8c-15.3-2-30.6-5-45.9-7.5
	c-1.2-0.2-2.5-0.1-4.2-0.2c0-1.3,0.4-2.7,1.2-4.4c2-0.7,3.5-1.1,3.7-1.2c5.5,0.9,10,1.7,14.4,2.5c4.6,0.8,10-0.6,13.5,4.6
	c0.4-1.1,0.7-2.1,0.8-2.4c5.1,1.2,9.9,2.7,14.7,3.2c4.8,0.5,9.7-0.1,14.6,0.1c6.9,0.3,13.8,1.3,20.7,1.2c6.6-0.1,13.1-1.3,19.7-1.6
	c6.5-0.3,13-0.5,19.5-0.1c8.1,0.5,15.8-3.7,24-1.6c0.8,0.2,2.2-0.2,2.6-0.8c3-4.8,7.6-3.3,11.9-3.6c2.2-0.1,4.5-0.7,5.7-0.9
	c1.8,1.7,3.2,3.1,4.6,4.5c-0.1-3.6-3.7-6.6,0.1-9.9c0.2,0.4,0.4,0.8,0.6,1.9c0.1,1.2,0.1,1.9,0.3,2.5c2.8,12.5,5.6,25,8.4,37.6
	c1.6,11.1,3.6,22.2,4.7,33.3c1.2,11.3,1.4,22.8,2.2,34.2c0.8,11-1.6,21.1-8.6,29.9c-0.5-0.8-1-1.8-0.7-2.4c1.4-2.5,1.1-4.8-1.1-6.3
	c-1-0.7-3-0.3-4.4,0.2c-1.4,0.5-2.2,2.9-1.7,3.8c0,0,0,0,0,0.3c-0.6,0.7-1.3,1.2-1.9,1.6c0,0,0,0-0.2-0.2c-0.7,1-1.2,2.2-1.6,3
	c-2.7,0.2-5.5,0.5-8.3,0.7c0.4,1,0.7,1.7,1,2.4c-0.2,0.1-0.4,0.2-0.6,0.3c-0.9-1-1.9-2-3-3.2c-0.6,1.2-0.8,2.2-1.5,2.8
	c-2.7,2.2-3.3,7.3-9.2,5.5c-2.4-0.7-5.9,2.4-9.4,4c-3.3-3.6-6.3-3.7-10.6,0.2c-0.6-1.1-1-3.4-1.8-3.5c-1.9-0.2-4,0.4-6,0.8
	c-1.6,0.4-3.2,1-4.9,1.3c-0.3-0.1-0.6,0.1-1.2,0.2c-4.2,0.6-8.6,4.4-10.7-2.6c-1.1,1.8-1.8,3.1-2.7,4.5c-2.8-3.8-12-2.6-15.7-0.4
	c-4-0.7-7.1-1.8-10.1-1.6c-5,0.3-10,2-14.9,2.1c-7,0.2-14.1-0.3-21-1c-4.8-0.5-9.5-2-14.2-3.1c0.6-1.5,1-2.4,1.5-3.8
	c-5.5-0.7-11.5,2.7-15.4-3.8c0,1.7,0,2.5,0,3.2c-0.5-0.3-1.1-0.5-1.6-0.8c-1.2-0.8-0.9-4.1-3.8-2.5c-4.2-2.3-8.3-4.3-12.4-6.3
	c-1.7-4.8-3.5-9.6-4.7-14.8c6.6-2.9,6.3,6.4,11.5,5.7c0.2,0,0.8,0.6,0.8,0.9c0.1,4.1,3.5,3.8,6,5c3.3,1.6,6.2,4,9.3,6.1
	c0.3,0.2,0.3,0.6,0.5,1c0.6-1.4,1.2-2.5,1.7-3.8c3.3,4.9,11.2,1.8,12.7,8.8c0.3-3.5,1.9-3.6,4.2-2.2c1.1,0.7,2.5,1.8,3.6,1.7
	c5.5-0.4,10.8-0.7,13.7,5.4c1.3-1.6,2.2-2.7,3.3-4.2c1.1,1.5,2,2.8,2.9,4.2c1-1.6,2.1-3.2,3.2-5c0.8,1,1.5,1.9,2.3,2.9
	c0.2-1.2,0.4-1.9,0.2-1.2c3.4,0.3,6.6,1.5,9.2,0.6C367.2,469.9,373.5,466.9,379.9,464.3z"/>
    <path class="st10" d="M143.1,290.7c8.9-4.4,16.2-10.5,21-19.5c1.8-3.5,10.5-2.9,13.9,0.9c5.7,6.3,11.1,12.9,16.5,19.4
	c5.6,6.6,11,13.4,16.7,19.9c1.4,1.6,3.4,2.7,5.4,3.6c13,5.8,26.2,11.4,40,17.4c-7.9,5.1-12,11.9-14.1,20.8c-1.1,2.1-1.8,3.7-2.5,5.3
	c-0.5-0.1-0.4-0.1-1-0.2v-2.8c-1.6,0.3-1.8,4.8-4.2,1.2c-0.3,0.7-0.6,1.5-1.1,2.6c-5.4-3.2-11.7-1.2-17.4-3.3
	c-0.8-0.3-1.1-1.6-1.9-2c-4.4-2.1-8.9-4-13.5-6.1l0.4-2.8c-0.5-0.2-0.4-0.1-0.9-0.3c-1,1.8-2.1,3.5-3.1,5.3
	c-0.3-0.2-0.6-0.3-0.8-0.5c0.3-0.8,0.6-1.7,1.3-3.3c-2.2,0-4.2,0.3-6-0.1c-1.2-0.2-3.4-1.7-3.3-2c0.9-3.2-1.8-3.1-3.4-4.1
	c-1.5-1-3-2-4.8-3.2c1.5-0.6,2.4-1,3.3-1.4c-3.2-2.1-6.1-3.9-9.4-6c1.5-0.6,2.5-1,4-1.6c-11.1-3.4-14.9-13.7-22-20.4
	c-0.5,0.7-1,1.3-1.4,1.8c-0.9-0.9-2-1.7-2.4-2.7c-0.4-1,0.4-2.4,0-3.4c-0.4-1-2.1-2.6-2.5-2.4c-2.7,1.3-1.9-1.2-2.7-2
	c-1.5-1.4-2.9-4.3-5.9-2.7c-0.4-1.8-0.8-3.2-1.1-4.6c0,0,0.1,0.2,0.4,0.1C141.5,291.3,142.3,291,143.1,290.7z"/>
    <path class="st11" d="M232.1,255c1.2-0.5,2.4-0.7,3.9-0.9v3.4c4.5,0.1,8.1,1.3,8.5,6.1c-1.5,0.1-2.8,0.2-4.1,0.3
	c1,1.2,1.8,2.6,3,3.6c1,0.8,2.4,1.1,3.6,1.6c0.3-0.6,0.7-1.3,1.3-2.5c0.8,2.2,1.3,3.9,1.9,5.6c0.8,2.3,1.8,2.6,2.8-0.2
	c0-0.3,0-0.3,0-0.3c2.2,2.5,4.5,4.9,7.3,8c2.7,0.5,7.3-0.7,9.1,4.8c0.2,0.7,3.1,2.8,4.1,5.4c0.4-1.3,0.7-1.9,0.9-2.4
	c3.8,0.7,7.5,1.3,11.2,2c0,0.4,0,0.4,0.1,0.8c-0.8,0.3-1.6,0.6-2.5,0.8c4.6-0.4,7.8,3,11.5,5c0.5-0.4,0.5-0.4,0.9-0.9
	c-0.3-0.8-0.6-1.5-1.1-2.8c0.7,0,1.5-0.2,1.7,0c1.9,2.9,4.6,3.7,8,3.7c0.8,0,1.6,2.2,2.4,3.6c2.6-2.7,6.2-2.9,9.6,2.5
	c0.7-2.5,1.1-3.7,1.7-5.9c1.4,2.2,2.5,3.9,3.7,5.7c0,0,0.4-0.7,0.9-1.4c1,0.7,2.1,1.5,3.5,2.5c0.5-1.5,0.9-2.6,1.5-4.2
	c0.8,1.5,1.4,2.5,1.8,3.3c3.8-0.3,7.5-0.6,11.6-1c0.1,0.6,0.2,1.6,0.3,2.7c3-0.2,6-0.3,9.3-0.5c-0.1,0.3-0.3,0.8-0.5,1.4
	c3.7-3.7,9.3,1.5,13-2.9c1.5,1.3,3,2.7,4,3.6c5.8-0.1,11.1-2.8,16.4,0c-0.4,0.4-0.7,0.6-1,0.7c0.1,0.1,0.2,0.3,0.2,0.3
	c0.4-0.2,0.7-0.5,1-0.7c2.7-0.8,5.4-1.7,8.7-2.7c-0.4,1.8-0.6,2.7-0.8,3.6c0.6,0.3,0.6,0.3,1.2,0.6c1.3-1.5,2.6-2.9,4.1-4.5
	c0.5,1.4,0.9,2.8,1.5,4.5c0.5-1.5,0.9-2.6,1.6-4.8c0.4,1.6,0.6,2.2,0.6,2.1c3.5-0.7,6.9-1.4,10.3-1.8c0,0.7,0,1,0,1.4
	c0.1-0.4,0.2-0.8,0.4-1.3c1.7,0,3.5,0,5.2,0c0-0.4,0-0.8,0.1-1.2c2.7,0.8,5.6,4.8,7.9-0.7c0.2-0.6,2.5-0.3,3.9-0.4
	c0.9-3.4,12-5.2,17.1-2.4c0.2-0.8,0.5-1.6,0.7-2.4c0.9,0.6,1.8,1.2,3.2,2.2c-0.6-1.5-0.9-2.3-0.9-2.2c4.2-1.6,8.3-3.2,12.3-4.8
	c0-0.3,0,0.5,0,0.5c2.9-0.9,6-3.1,8.5-2.5c3.7,0.9,4.8-1.1,6.4-3.1c1.2-1.6,1.7-4.9,4.8-2c0.2,0.2,1.5-0.7,2.1-1.2
	c1.6-1.2,3.1-2.5,4.6-3.8c-0.9-0.9-1.8-1.9-2.6-2.8c3-0.2,6.1-0.4,9.1-0.6c-0.4-0.4-0.7-0.9-1.1-1.3c0.6,0.9,1.2,1.8,1.5,2.2
	c2-1.3,4.1-2.3,5.8-3.7c4-3.3,7.8-6.8,11.8-10c1.2-1,3.1-1.2,4.9-1.6c-9.2,19.5-23.9,33.8-43.8,41.9c-20.9,8.5-43.1,11.7-65.5,13.6
	c-1.6,0.1-3.1,0.3-5.3,0.2c-15.7-0.4-30.8-0.5-45.9-0.5c-0.5,0-1.1,0.5-1.6,0.8c-9-0.8-18.1-1.1-27-2.7c-14-2.4-28.1-4.5-41.6-8.7
	c-23.6-7.3-39.8-24-51.4-45.4C233.7,258.7,232.9,257,232.1,255 M262.7,282c0.2,0.3,0.4,0.6,0.6,0.8c0.2-0.2,0.4-0.3,0.5-0.5
	C263.6,282.1,263.3,281.9,262.7,282 M265.9,282.5c0.1,0.2,0.1,0.3,0.2,0.5C266.2,282.8,266.2,282.6,265.9,282.5z"/>
    <path class="st12" d="M486.8,432.3c0,0-0.1-0.3,0.1-0.9c0.1-1.6,0-2.5-0.1-3.5c-0.1-0.7-0.1-1.5,0-3c0.2-5.8,0.2-10.8,0.2-15.9
	c4.1-5.4,8.2-10.7,12.7-16.5c0.8-1,1.2-1.6,2-2.3c1.4-0.9,2.4-1.6,3.7-2.5c-7.1-4.7-14.1-8.4-17.5-16.2c-0.2-0.4-1.6-0.2-2.5-0.2
	c0,0.1,0-0.1,0-0.4c0-1.8,1.1-3.8-1.8-3.7c0.4-0.7,0.9-1.1,0.9-1.4c-1.6-8.1,2.5-13.6,8.7-18.3c4.7-1.7,9-3.4,13.3-5
	c0,0-0.2,0.3,0,0.5c0.8,0.3,1.5,0.4,2.2,0.6c10.2,4.6,27.1,17.7,32,25.1c-12.5,2.9-19.1,11.4-20.5,23.5c-1.2,10.6,5,20.7,14.3,25.7
	c-1.5,6.9-7.4,5.2-11.7,6.4c1.6,3.4,1.6,3.4-3.3,4.7c-0.4-0.2-0.8-0.2-1.1-0.2c0.4,0.1,0.8,0.2,1.2,0.6c-3.1,5.1-7.4,8.3-13.3,8.6
	c-1.8,0.1-3.9-1.2-5.3-0.6c-3.8,1.8-7,2.6-9.9-1.3c-0.3-0.3-1.5,0-2.3,0.1c0,0,0-0.1,0.1-0.4c-0.3-0.8-0.6-1.3-1-1.8
	c0,0-0.1-0.2,0-0.7C487.5,432.7,487.1,432.5,486.8,432.3z"/>
    <path class="st13" d="M74.3,241.5c-1.5-4-3.5-7.9-4.5-12c-0.9-3.8-0.9-8.3,3.4-10.3c4.3-1.9,8.6-1.2,12.1,2.4
	c4.4,4.5,8.9,8.8,13.2,13.5c4.7,5.1,10.2,7.4,17.2,6.8c6-0.5,12.2-0.1,19.2-0.1c-1.8-5.3-3.2-9.1-4.3-13.1c-0.7-2.3-1-4.8-1.2-7.2
	c-0.4-3.8,1.9-6.1,5.1-7.7c3.7-1.9,6.7,0.1,8.9,2.4c9.9,10.6,16.7,22.6,14.4,38.3c-6,2.9-6.7,10.6-13.1,12.3c-2.6,0.7-4.9,2-7.5,2.7
	c-2,0.5-5.1-0.4-6,0.7c-2.6,3.1-5.6,1.2-8.4,1.6c-1.2,0.1-2.4,0.3-3.9,0.5c-2.8-3.1-5.4-7.5-11.5-6c-0.3,0.1-0.7-0.3-1.1-0.6
	c-5-3.6-11.4-4.8-15.5-10.1c-1.5-2-4.5-2.8-6.5-4.4c-0.5-0.4-0.1-1.9-0.1-2.9c-0.5-0.3-1.7-0.5-2.3-1.2
	C79.9,244.7,78.5,241.3,74.3,241.5z"/>
    <path class="st7" d="M346.7,574.6c-12.1-7-24.8-7.5-38.7-4c-1.2-2.4-1.6-4.7-2.1-7c-0.5,0.1-1.2,0.2-1.3,0.2c0.5-2.6,1.3-5,1.2-7.2
	c-0.4-5.8-1.4-11.6-2-17.4c-0.2-1.7,0-3.4,0-5.1c-0.3,0-0.7,0-1-0.1c-0.3,1.4-0.7,2.7-1,4.1c-0.3-0.1-0.5-0.1-0.8-0.2
	c0.7-3.3,1.5-6.6,2.3-9.8c0.1,0.2,0.2,0.2,0.3,0.3c-0.1-0.2-0.3-0.3-0.3-0.8c2.9-2.7,3.7-5.6,2.9-9.2c-0.9-3.9,1-6.9,3.7-9.4
	c0,0,0,0,0.4,0c1.4-0.4,2.5-0.7,3.9-1c8.6,1.2,16.3,3.8,23,8.7c3.4,2.5,8,5.9,8.4,9.4c1.1,8.5,0,17.2-0.1,25.9
	C345.2,559.5,341.5,567.3,346.7,574.6z"/>
    <path class="st14" d="M461,460.5c-0.4-0.9,0.3-3.3,1.7-3.8c1.3-0.5,3.4-0.9,4.4-0.2c2.3,1.5,2.6,3.8,1.1,6.3
	c-0.3,0.5,0.2,1.5,0.4,2.6c-3.4,8.7-10.8,13-18.2,17c-9.1,5-19.1,6.4-29.5,6.5c-19.3,0.3-38.5,1.5-57.7,1.2c-17.4-0.2-35,0.6-52.1-4
	c-7.9-2.1-14.7-6.4-20.6-12.6c0.7-2.6,1.3-4.4,2-6.3c0,0,0,0,0,0c2.8-2,2.5,1.4,3.8,2.1c0.5,0.3,1.1,0.5,1.6,0.8c0-0.7,0-1.5,0-3.2
	c4,6.6,9.9,3.2,15.5,3.9c-0.6,1.4-0.9,2.3-1.5,3.8c4.8,1.1,9.5,2.6,14.3,3.1c7,0.8,14.1,1.2,21.1,1c5-0.1,10-1.8,15-2.1
	c3-0.2,6.1,0.9,10.1,1.6c3.7-2.3,13-3.4,15.8,0.4c0.8-1.4,1.6-2.7,2.7-4.5c2.1,7.1,6.6,3.2,10.8,2.6c0.4,0,0.3,0,0.4,0.2
	c0.1,0.5,0.2,0.7,0.3,0.9c0.2-0.4,0.4-0.8,0.6-1.2c0,0,0,0,0,0c1.6-0.5,3.2-1.1,4.9-1.5c2-0.4,4-1.1,6-0.8c0.8,0.1,1.2,2.3,1.8,3.5
	c4.4-3.9,7.3-3.8,10.6-0.2c3.5-1.6,7.1-4.8,9.4-4c5.9,1.8,6.4-3.3,9.2-5.5c0.7-0.5,0.9-1.6,1.5-2.8c1.1,1.2,2.1,2.2,3,3.2
	c0.2-0.1,0.4-0.2,0.6-0.3c-0.3-0.7-0.6-1.4-1.1-2.4c2.9-0.2,5.6-0.5,8.4-0.7c0.4-0.9,0.9-2.1,1.4-3c0.1,0.3,0.2,0.2,0.3,0.2
	c0.6-0.4,1.2-0.9,2.1-1.6c0.5-0.4,0.8-0.6,1.1-0.7C461.9,460.3,461.5,460.4,461,460.5z"/>
    <path class="st15" d="M436.4,507.9c1.4,0.3,1.2,2.3,3.4,1.2c2-1,4.2-0.1,4.3,3.1c0.3,8.5,1.2,16.9,1.3,25.4
	c0.1,8.7-0.5,17.4-0.8,26.1c-0.1,2.3,0.1,4.5-0.2,7c-12.1-3.5-23.7-3.2-35.4,2.1c-1-15.1-2.2-30.3-2.1-45.4c0-3.5,4-8.1,7.4-10
	C421,513.4,428.7,511,436.4,507.9z"/>
    <path class="st16" d="M461,325.6c-3.9,3.6-0.3,6.5-0.2,10.1c-1.4-1.4-2.8-2.7-4.6-4.5c-1.3,0.2-3.5,0.8-5.7,0.9
	c-4.3,0.2-8.9-1.2-11.9,3.6c-0.4,0.6-1.8,1-2.6,0.8c-8.2-2.1-15.9,2.1-24,1.6c-6.5-0.4-13-0.2-19.5,0.1c-6.6,0.3-13.1,1.6-19.7,1.6
	c-6.9,0.1-13.8-0.9-20.7-1.2c-4.9-0.2-9.8,0.5-14.6-0.1c-4.9-0.5-9.6-2.1-14.7-3.2c-0.1,0.3-0.4,1.3-0.8,2.4
	c-3.5-5.2-8.9-3.8-13.5-4.6c-4.5-0.8-9-1.6-14.4-2.5c-0.2,0-1.7,0.4-3.5,0.8c0.6-2.9,1.4-5.8,2.3-8.7c0.8-2.5,2.2-3,5-2.5
	c14.2,2.4,28.3,5.5,42.6,6.3c21.7,1.3,43.5,2,65.1,1c16.1-0.8,32-4.7,48-7.5C458.8,319.3,459.9,319.7,461,325.6z"/>
    <path class="st17" d="M139.4,291.6c0.7,1.3,1,2.7,1.5,4.8c5.7,7.9,11.3,15.1,16.9,22.3c3.8,4.9,7.6,9.8,11.1,14.7
	c-1.5,8.2,0.6,11.6,7.5,14.2c2.9,1.1,4.8,4.7,8.7,2.9c0,0,0.5,1.3,1,1.7c1.3,1.1,2.7,1.9,4.3,3c0.7,0.4,1.1,0.7,1.6,1.3
	c2.4,2.4,4.3,5,7,6.5c12.1,6.8,25.2,9.7,39,9.6c2.1,0,4.2-1.6,6.3-2.5c2.4,3.4,4.8,6.8,7.5,10.6c-9,3.3-18,4.2-26.7,2.7
	c-9.9-1.7-19.6-5.1-29.1-8.7c-10.5-3.9-18.4-11.8-25.7-20.1c-12.6-14.4-25-29-37.3-43.7c-3.8-4.5-5.2-10.1-5.5-15.9
	C131.7,294,135.4,292.9,139.4,291.6z"/>
    <path class="st18" d="M346.8,574.8c-5.3-7.6-1.7-15.4-1.5-22.9c0.1-8.6,1.2-17.4,0.1-25.9c-0.4-3.5-5-6.9-8.4-9.4
	c-6.6-4.9-14.4-7.5-23.2-8.9c-4.1-3.1-6.6-1-9.4,1.7c0.7,0.3,1.4,0.6,0.9,0.4c-1.3,2.2-2.5,3.9-3.3,5.7c-1.4,3.2-2.5,6.4-3.7,9.7
	c0.5-10.3,1-20.7,1.4-30.2c11.7,1.8,22.8,3.5,34.1,5.6c-1.2,1.8-2.6,3.1-4.2,4.7c6.2,0.8,11.8,1.5,16.2,2c1,1.6,1.6,3,1.8,2.9
	c1-0.3,1.8-1,1.7-0.9c2.8,0.8,4.8,1.4,7.7,2.2c-1.8-3.8-4.5-7.1,1.2-8.2c-0.2,25.4,0.5,50.9-3.9,76.6
	C351.5,578.2,349.2,576.7,346.8,574.8z"/>
    <path class="st19" d="M379.9,464c-6.4,2.9-12.7,5.9-19.3,7.9c-2.6,0.8-5.8-0.3-9.2-0.6c0.1-0.7,0,0-0.2,1.2
	c-0.8-1.1-1.5-1.9-2.3-2.9c-1.1,1.8-2.2,3.3-3.2,5c-0.9-1.3-1.9-2.7-2.9-4.2c-1.2,1.4-2,2.5-3.3,4.2c-2.9-6.1-8.2-5.8-13.7-5.4
	c-1.2,0.1-2.5-1-3.6-1.7c-2.3-1.5-3.9-1.3-4.2,2.2c-1.4-6.9-9.4-3.9-12.7-8.8c-0.6,1.2-1.1,2.4-1.7,3.8c-0.2-0.4-0.2-0.8-0.5-1
	c-3-2.1-6-4.5-9.3-6.1c-2.5-1.2-5.9-1-6-5c0-0.3-0.6-1-0.8-0.9c-5.2,0.7-4.8-8.6-11.3-6.1c-0.9-2.8-1.9-5.7-1.9-8.6
	c-0.2-6.7,0.1-13.5,0.4-20.6c3.4,1.6,0.7,4.4,1.2,6.8c0.1,0.5-0.7,1.3-0.5,1.7c1.7,4,3.2,8-0.9,12.1c0.5,0.2,0.9,0.5,1.4,0.7
	c2.1-1,4.2-2,6.7-3.3c-0.3,1.2-0.6,2.1-0.8,3.1c4.3,1.4,6.2,6.9,12.2,6.2c4.5-0.6,8,6.4,11.5,5.8c5.8-1.1,8.8,3.7,13.8,3.9
	c4.8,0.2,9.5,2.9,14.4,4.6c0,0-0.5,1-0.7,1.4c4.3,0.7,8.7,1.5,13,2.2c0.7,0.1,1.6,0,2.3-0.3c3.5-1.5,6.9-2.5,10.8-1.6
	c1.2,0.3,2.7-1.1,4.5-2c6.4,6.8,9.4,7.4,12.5,0.7C377.1,460.3,378.5,462,379.9,464z"/>
    <path class="st20" d="M329.6,607c-14.5,0-29,0-44.9,0c2.5-4.3,4.2-8.3,6.7-11.5c9-11.3,21-16.4,35.3-16.1c6.8,0.1,12,4,17.6,8
	c-0.2,1.8-0.9,3.1-1,4.5c-0.4,5.3-4.2,10.5-8.6,11c-5.4,0.6-10.8,0.8-16.3,1.3c-1.2,0.1-2.4,0.3-3.7,0.4c0.1,0.2,0.1,0.3,0.2,0.5
	C319.9,605.7,324.8,606.3,329.6,607z"/>
    <path class="st21" d="M408.5,586c22.2-16.9,53.3,1.2,57.1,20.7c-13.1,0-26.2,0-39.3-0.3c6.6-0.3,13.4-0.3,20.1-0.3
	c-0.9-1.3-1.8-1.7-2.7-1.7c-8.6-0.6-17,0.3-25.7-1.5c-6.8-1.4-10.9-9.9-7.5-15.7C409.8,586.8,409.2,586.4,408.5,586z"/>
    <path class="st22" d="M169.5,333.5c-3.8-4.9-7.6-9.8-11.4-14.7c-5.6-7.2-11.1-14.4-16.8-22c2.9-2.2,4.3,0.6,5.7,2.1
	c0.8,0.8,0,3.3,2.7,2c0.4-0.2,2.1,1.4,2.5,2.4c0.4,1-0.4,2.4,0,3.4c0.4,1,1.5,1.8,2.4,2.7c0.4-0.6,0.9-1.2,1.4-1.8
	c7.1,6.7,10.9,17,22,20.4c-1.5,0.6-2.4,1-4,1.6c3.3,2.1,6.2,3.9,9.4,6c-1,0.4-1.9,0.8-3.3,1.4c1.8,1.2,3.3,2.2,4.8,3.2
	c1.6,1,4.3,0.8,3.4,4.1c-0.1,0.4,2,1.8,3.3,2c1.8,0.4,3.8,0.1,6,0.1c-0.6,1.6-0.9,2.4-1.3,3.3c0.3,0.2,0.6,0.3,0.8,0.5
	c1-1.8,2.1-3.5,3.1-5.3c0.5,0.2,0.4,0.1,0.9,0.3l-0.4,2.8c4.6,2,9.1,4,13.5,6.1c0.8,0.4,1.1,1.7,1.9,2c5.7,2.1,12,0.2,17.4,3.3
	c0.5-1.1,0.8-1.8,1.1-2.6c2.4,3.6,2.6-0.9,4.2-1.2l0,2.9c0.5,0.1,0.4,0.1,0.9,0.2c0.7-1.6,1.5-3.3,2.4-5c0.3,3.6,0.3,7.4,0.2,11.7
	c-3.5,1.2-6.9,2.1-10.3,2.4c-6.2,0.6-12.2,0.2-17.8-3.3c-1.5-0.9-3.6-0.9-5.3-1.4c-0.7-0.6-1.6-1.7-2.7-2.2c-2.2-1-5.8-0.9-6.7-2.5
	c-2.2-3.7-4.5-3.3-7.5-2c-0.4-0.3-0.9-0.6-1.6-1.3c1.8-6.1-4.3-5.9-5.9-9.3c-0.5,1-0.7,1.7-1.1,2.5
	C178.1,343.8,176.4,336.1,169.5,333.5z"/>
    <path class="st23" d="M74.3,241.9c4.1-0.6,5.6,2.8,7.7,5.3c0.6,0.7,1.7,0.9,2.3,1.2c0,1-0.4,2.5,0.1,2.9c2.1,1.6,5,2.4,6.5,4.4
	c4,5.3,10.5,6.5,15.5,10.1c0.3,0.2,0.8,0.6,1.1,0.6c6-1.5,8.7,3,11.5,6c1.5-0.2,2.7-0.4,3.9-0.5c2.8-0.3,5.8,1.6,8.4-1.6
	c0.9-1.1,4-0.2,6-0.7c2.6-0.7,4.9-2,7.5-2.7c6.4-1.7,7.1-9.4,12.9-12c0.2,11.3-10.6,24.3-22.7,27.1c-18.4,4.2-33.2-2.9-44.9-16.5
	C84,258.4,79.6,250,74.3,241.9z"/>
    <path class="st24" d="M488.6,436.7c0.9-0.4,2.1-0.8,2.4-0.4c2.9,4,6.1,3.1,9.9,1.3c1.3-0.6,3.5,0.7,5.3,0.6
	c5.9-0.4,10.1-3.5,13.2-8.6c0-0.3,0-0.2,0-0.2c4.8-1.5,4.8-1.5,3.2-4.9c4.4-1.1,10.2,0.6,12-6.1c4.4,0.6,8.7,1.5,14.1,2.7
	c-2.3,2.8-4.4,5.8-6.9,8.4c-5.8,5.7-11.6,11.4-17.8,16.8c-5.3,4.6-11.7,7.2-18.9,6.2c-2.6-0.4-5.7-1.6-7.4-3.5
	C494.2,445.3,491.6,441,488.6,436.7z"/>
    <path class="st25" d="M559.2,394.1c0.1,8.7-6.7,16.5-14.3,16c-7.5-0.5-17.2-6.8-15.4-18.3c2.7-1.3,5.1-2.3,7.2-3.8
	c6.7-4.8,11.2-4.2,16.6,2.2C554.7,392,557.2,392.9,559.2,394.1 M541.4,391.9c-0.2,1.2-0.3,2.5-0.6,4.8c2.5-0.7,4.6-0.9,6.1-1.9
	c0.5-0.3-0.3-2.8-0.6-4.3C544.3,390.9,543.1,391.2,541.4,391.9z"/>
    <path class="st12" d="M201.6,171.2c0.8-5.2,0.7-10.7,2.6-15.4c1.2-3.1,5.3-5,8.4-6.8c0.3,17.5,0.3,34.4,0.3,51.3c-0.3,0-0.7,0-1,0
	c-0.1-0.9-0.1-1.8-0.2-2.6c-1.1,0.5-2,0.8-2.7,1.4c-3.8,3-4.6,2.7-5.4-2.5c-0.6-3.3-0.9-6.6-1.1-9.9
	C202.1,181.5,201.9,176.4,201.6,171.2z"/>
    <path class="st17" d="M492.8,347.6c-5.9,4.6-10,10.1-8.4,18.2c0.1,0.3-0.5,0.8-0.9,1.8c0.5,1.6,1.2,2.7,1.9,3.7c0,0-0.1,0.1-0.1,0.4
	c1.2,2.6,2,5.3,3.8,7.1c3.8,4.1,8.1,7.7,12.3,11.5c-0.4,0.6-0.9,1.1-1.5,1.9c-3.8-1.6-7.4-3.4-11.5-5.7c-1.2-0.5-1.8-0.6-2.5-0.7
	c-1.2-1.7-2.3-3.4-3.5-5.6c0-0.7-0.1-0.9-0.3-1.1c-0.1-0.5-0.2-0.9-0.2-1.8c0.3-0.8,0.2-1-0.2-1.1c-0.4-2.5-0.8-5.1-1.2-8.3
	c-0.1-1.4-0.2-2.2-0.3-3c-2.1-9.7-4.1-19.3-6.4-30c5.3,0.5,10.2,1,15.2,2C488.3,341.7,489.7,344.9,492.8,347.6z"/>
    <path class="st26" d="M298.2,525.4c1.4-3.5,2.5-6.8,3.8-9.9c0.8-1.8,2-3.5,3.3-5.7c0.5,0.2-0.2-0.1-0.9-0.4c2.8-2.6,5.3-4.7,9-1.7
	c-0.8,0.6-1.9,1-3.4,1.2c-0.5-0.2-0.6-0.2-0.7-0.3c0.1,0.1,0.2,0.3,0.3,0.4c-2.7,2.6-4.6,5.6-3.7,9.4c0.8,3.6,0.1,6.5-2.9,9.2
	c0,0.3,0,0.3,0,0.3c-0.7,3.3-1.5,6.6-2.2,9.9c0.3,0.1,0.5,0.1,0.8,0.2c0.3-1.4,0.7-2.7,1-4.1c0.3,0,0.7,0,1,0.1c0,1.7-0.2,3.4,0,5.1
	c0.6,5.8,1.6,11.6,2,17.4c0.2,2.3-0.7,4.6-1.2,7.2c0.1,0,0.8-0.1,1.3-0.2c0.5,2.2,0.9,4.6,1.7,7c-2.3,1.6-5,3-9.3,5.4
	C298.2,558.4,298.1,542,298.2,525.4 M299.3,534.3c-0.1-0.3-0.3-0.5-0.4-0.8c-0.1,0.6-0.2,1.3-0.3,1.9
	C298.9,535.3,299.1,535,299.3,534.3z"/>
    <path class="st10" d="M538.4,195c0-15.4,0-30.8,0-46.3c5.8,0.7,11.5,8,11.6,14.9c0,4.7,0.1,9.4-0.1,15c-0.2,3.9-0.2,7-0.2,11.3
	c-2.4-2.2-3.8-3.5-5.5-4.9c-2.3,1-4.1,2.6-3.7,6.2C540.7,192.3,539.2,193.7,538.4,195z"/>
    <path class="st1" d="M201.4,171.5c0.5,4.8,0.7,10,1.1,15.2c0.2,3.3,0.6,6.7,1.1,9.9c0.9,5.2,1.6,5.5,5.4,2.5
	c0.7-0.6,1.6-0.8,2.7-1.4c0.1,0.8,0.1,1.7,0.2,2.6c0.3,0,0.7,0,1,0c0-16.9,0-33.8,0-51.2c0.3,1.6,1,3.7,1,5.8
	c0,21.3,0,42.6-0.1,63.9c0,2.5,0,4.9,0,7.8c-5-0.7-7.9-4.2-9.1-8.3c-1.8-6.3-3-12.8-3.4-19.3C200.7,189.9,201.2,180.9,201.4,171.5z"
    />
    <path class="st27" d="M274.6,349.5c-0.3,1.8-0.7,3.6-1.4,5.6c-2.7-0.7-5.2-2.4-7.4-2.3c-1.6,0.1-2.9,3-4.3,4.6
	c1.6,0.9,3.2,2.2,4.9,2.6c1.9,0.4,4,0,6.1,0c-1,5.3-2,10.5-3,15.7c-10.5-1.5-16.6-8-17.1-18.3c2.9-2.4,5.3-4.8,8.1-6.3
	c2.9-1.5,6.2-2.4,9.4-3C271.2,347.9,272.9,349,274.6,349.5z"/>
    <path class="st28" d="M408.2,586.1c1,0.3,1.6,0.7,2.3,1c-3.5,5.8,0.7,14.2,7.5,15.7c8.7,1.8,17.2,0.9,25.7,1.5
	c0.9,0.1,1.8,0.4,2.7,1.7c-6.8,0-13.5,0-20.5,0.3c-9.4,0.4-18.6,0.5-27.7,0.7c-4.2,0.1-4.3-1.7-3-5
	C397.9,595.5,402.2,590.3,408.2,586.1z"/>
    <path class="st28" d="M330.1,606.9c-5.3-0.8-10.2-1.5-15-2.1c-0.1-0.2-0.1-0.3-0.2-0.5c1.2-0.1,2.4-0.3,3.7-0.4
	c5.4-0.4,10.9-0.7,16.3-1.3c4.4-0.5,8.2-5.7,8.6-11c0.1-1.4,0.9-2.7,1.4-4.4c7.2,4.3,10.9,11.3,14,19.9
	C348.8,607,339.7,607,330.1,606.9z"/>
    <path class="st29" d="M108.2,54.6c0.4,0.6,0.5,1.2,0.5,1.7c-8.2-0.7-12.3,6.1-17.2,10.5C78,79.1,65.2,92.2,52,104.9
	c-5.9,5.7-12.1,11.2-18.5,16.7c4.5-5.6,9-11.5,14.1-16.7c14.6-14.7,29.4-29.2,44.1-43.8C96.2,56.6,101.7,54.9,108.2,54.6z"/>
    <path class="st27" d="M118.1,223.4c0.6,3.1,1.2,5.9,2,9.5c-12.1-0.1-17.4-9.3-24.9-15.7c8.6-0.6,16.7-1.1,24.5-1.6
	C119.3,217.2,118.7,220.1,118.1,223.4z"/>
    <path class="st30" d="M192.1,356.7c2.9-1.6,5.2-2.1,7.4,1.6c0.9,1.6,4.5,1.6,6.7,2.5c1.1,0.5,2,1.5,2.7,2.2c1.7,0.4,3.8,0.4,5.3,1.4
	c5.5,3.5,11.6,3.8,17.8,3.3c3.4-0.3,6.8-1.2,10.3-2c0.7,1.2,1.2,2.6,1.9,4.3c-2,1.2-4.1,2.8-6.2,2.8c-13.8,0-26.9-2.8-39-9.6
	C196.4,361.7,194.4,359.1,192.1,356.7z"/>
    <path class="st31" d="M550,201.7c1.3,10.3-3.1,21.3-11.7,23.8c0-6.2,0-12.2,0.3-18.6c0.7-0.9,1.3-1.5,1.5-2.2
	c0.9-2.3,1.6-4.6,2.6-6.8c0.1-0.3,2.3,0.5,3.5,0.8C545.4,202.5,548.2,201.4,550,201.7z"/>
    <path class="st32" d="M559.2,393.8c-2-0.9-4.5-1.8-5.9-3.5c-5.4-6.3-9.9-7-16.6-2.2c-2.1,1.5-4.5,2.5-7,3.5c-0.2-0.6-0.1-1,0.1-2
	c0.1-0.7,0.1-0.9,0.1-1.1c3.3-7.7,9.6-12.1,16-11.1C552.9,378.4,558.5,385.1,559.2,393.8z"/>
    <path class="st33" d="M274.6,349.1c-1.7-0.2-3.5-1.3-5-1c-3.2,0.6-6.5,1.5-9.4,3c-2.8,1.5-5.2,3.9-8.1,6c0.8-11,4.9-16.1,14.6-18.1
	c1.6-0.3,3.3,0,4.9,0.3c1.7,0.3,3.3,1,5.5,1.7C276.4,343.6,275.6,346.2,274.6,349.1z"/>
    <path class="st3" d="M491.6,457.4c0.9,1.7,2.5,3.7,2.1,4.7c-3,6.6-8.6,10.5-15.2,13.1c-0.7,0.3-1.7-0.3-2.6-0.5
	c3.3-7.7,6.6-15.2,9.9-22.7C487.4,453.5,489.3,455.3,491.6,457.4z"/>
    <path class="st34" d="M358.2,502.9c-5.8,1.5-3.1,4.8-1.3,8.6c-2.9-0.8-4.9-1.4-7.7-2.2c0.1-0.1-0.7,0.6-1.7,0.9
	c-0.2,0.1-0.8-1.3-1.8-2.9c-4.4-0.6-10-1.3-16.2-2c1.6-1.6,3-2.9,4.6-4.5c6.9-0.3,13.7-0.4,20.4-0.3
	C355.9,500.5,357.1,501.8,358.2,502.9z"/>
    <path class="st35" d="M550.1,201.4c-2,0.1-4.8,1.1-3.9-2.6c-1.2-0.3-3.4-1.1-3.5-0.8c-1.1,2.2-1.8,4.5-2.6,6.8
	c-0.3,0.7-0.8,1.2-1.5,1.7c-0.3-3.6-0.4-7.1-0.3-11.1c0.8-1.7,2.3-3.1,2.2-4.2c-0.4-3.6,1.4-5.2,3.7-6.2c1.6,1.5,3.1,2.8,5.5,4.9
	c0-4.2,0-7.3,0.1-10.8C550,186.1,550.2,193.6,550.1,201.4 M548.9,191.5c0.1,0,0.2,0.1,0.3,0.1c-0.1-0.2-0.2-0.3-0.4-0.8
	c-0.1,0-0.2-0.1-0.3-0.1C548.5,190.9,548.7,191.1,548.9,191.5z"/>
    <path class="st36" d="M184.3,152.8c-0.3,1.8-0.3,4.1-1.5,5.4c-12.5,12.8-25.2,25.3-37.7,38c-1.4,1.4-2.2,3.3-3.3,5.3
	c-4.1-2.3-1-4.4,0.7-6.2c12.5-12.6,25.1-25.2,37.6-37.8C181.5,156.1,182.7,154.5,184.3,152.8z"/>
    <path class="st16" d="M479.9,365.3c0.4,0.4,0.5,1.2,0.6,2.2c-3.2,0.2-6.3,0.1-9.9,0.1c-3.2-12.4-6-24.9-8.8-37.4
	c-0.1-0.6-0.2-1.2-0.2-2.2c1.8,4.2,3.9,8.8,5.2,13.5c1.7,6.7,2.4,13.6,4.3,20.3C472.1,365.7,475.5,367.3,479.9,365.3z"/>
    <path class="st31" d="M493.1,347.5c-3.3-2.6-4.8-5.8-3.9-10.3c5.6,1.4,11.2,3.1,17,5C502.1,344.2,497.7,345.8,493.1,347.5z"/>
    <path class="st37" d="M272.5,359.7c-2.2,0.3-4.3,0.7-6.2,0.3c-1.7-0.4-3.3-1.7-4.9-2.6c1.4-1.6,2.7-4.5,4.3-4.6
	c2.2-0.2,4.6,1.6,7.3,2.6C273.1,356.8,272.9,358.1,272.5,359.7z"/>
    <path class="st36" d="M195.2,223.8c-3.1-2.2-4-5.7-4-9.6c0-16.7,0-33.4,0-50.1c0-2.2-0.5-4.3-0.7-6.9c0.6,1.3,1.8,3,1.8,4.8
	c0.1,14,0.2,28.1,0,42.1C192.1,210.8,192.6,217.3,195.2,223.8z"/>
    <path class="st38" d="M531.7,184.5c0.3,2.5,0.8,4.9,1,7.4c0.2,2.1,0,4.1,0,6.8c5.2,2.1,1.7,5-0.4,8.2c-5-7.2-0.6-14.7-0.9-22.1
	C531.7,184.6,531.7,184.5,531.7,184.5z"/>
    <path class="st27" d="M531.7,184.6c-1.9-10.2,0.1-20.3-1.1-30.5c0.6,0,1.1,0,1.7,0c0,10,0,20-0.3,30.2
	C531.7,184.5,531.7,184.6,531.7,184.6z"/>
    <path class="st36" d="M254.9,302.6c-1.7-0.1-3.8-0.1-5-1.2c-4.7-4.3-9.2-8.9-13.6-13.5c-0.9-1-1-2.8-1.4-4.5
	c3.8,3.5,7.5,7.4,11.3,11.1C249,297.2,252,299.7,254.9,302.6z"/>
    <path class="st14" d="M280.3,460.9c4.1,1.7,8.2,3.7,12.3,6c0,0.3,0.1,0.3-0.3,0.3c-4.6,0.7-0.8,4.3-2.5,5.9
	C286.7,469.2,283.5,465.2,280.3,460.9z"/>
    <path class="st8" d="M354.8,317.4c0.1-0.4,0.6-0.9,1.2-0.9c15.1,0.1,30.1,0.2,45.4,0.5C386.2,317.3,370.7,317.4,354.8,317.4z"/>
    <path class="st36" d="M260.3,322.7c3.2,0.4,6.6,0.9,9.7,2.1c6.7,2.7,9.6,1.3,11.4-6.4c3.5,1,1.5,3.7,0.7,5c-0.9,1.6-3.3,3.6-4.8,3.4
	C271.6,326,266,324.4,260.3,322.7z"/>
    <path class="st36" d="M164.3,226.9c0.8-0.1,1.9,0.1,2,0.5c2.3,9.7,5.6,19.3,3.9,29.9c-0.4-0.4-1-1.2-0.9-2
	C170.5,245.4,166.6,236.5,164.3,226.9z"/>
    <path class="st36" d="M141.7,202.2c6.9-0.7,10.4,4.4,14.4,8.7c0.7,0.8,0.6,2.3,0.7,3.9c-2.4-2.1-4.5-4.7-7.1-6.9
	C147.3,205.8,144.5,204.3,141.7,202.2z"/>
    <path class="st5" d="M384.2,535.8c-0.5-0.9-1.3-2.2-1.3-3.6c-0.1-8.6,0-17.2-0.1-25.8c0-1.8-0.5-3.7-0.7-5.9c0.7,1,1.9,2.4,1.9,3.9
	C384.2,514.7,384.2,525.1,384.2,535.8z"/>
    <path class="st36" d="M182.5,262c4.8-0.5,11.9,6.1,12.3,11.6C190.7,270.1,186.6,266.2,182.5,262z"/>
    <path class="st36" d="M205.6,234.3c-4.9,0.4-9.9-4.2-10.5-9.7C198.6,227.5,202.1,230.7,205.6,234.3z"/>
    <path class="st36" d="M195.6,275.2c4.5,1,8.3,5.2,8.7,9.7C201.3,282.1,198.4,278.8,195.6,275.2z"/>
    <path class="st39" d="M447.9,494.4c1.3,0.9,2.5,1.7,4.4,3.1c-2.1,1.2-3.9,2.2-5.7,3.2c-3.6-2.6-0.1-3.9,0.7-6
	C447.4,494.5,447.8,494.3,447.9,494.4z"/>
    <path class="st36" d="M205.1,286.6c4.5,1,8.3,5.2,8.7,9.7C210.8,293.5,207.9,290.2,205.1,286.6z"/>
    <path class="st5" d="M368.9,503.4c0.2,6.3,0.2,12.8-0.3,19.5C368.3,516.5,368.4,510.1,368.9,503.4z"/>
    <path class="st36" d="M214.5,298c2.4,1.6,4.6,3.6,6.8,6C219,302.3,216.7,300.3,214.5,298z"/>
    <path class="st36" d="M170.3,258.1c4.4-1.2,8.3,0.4,12.1,3.1C178.5,260.6,174.5,259.5,170.3,258.1z"/>
    <path class="st36" d="M233.7,311.3c3.1,0.7,6.3,1.7,9.4,3.1C240,313.7,236.9,312.7,233.7,311.3z"/>
    <path class="st36" d="M219.9,256.1c-1.3-2.5-2.6-5.4-3.9-8.7C217.3,249.9,218.6,252.8,219.9,256.1z"/>
    <path class="st24" d="M486.6,409.3c0.3,4.8,0.4,9.8,0.3,15.3C486.6,419.9,486.5,414.7,486.6,409.3z"/>
    <path class="st36" d="M157.6,216.4c3.6,0,5.2,2.1,4.9,5.9C160.8,220.7,159.2,218.7,157.6,216.4z"/>
    <path class="st36" d="M250.8,318.9c3.1,0.7,6.3,1.7,9.4,3.1C257.1,321.3,254,320.2,250.8,318.9z"/>
    <path class="st36" d="M190.6,156.5c-1.7-1-3.4-2.3-5.3-3.9c0.3-0.7,1-1.2,1.8-1.4c0.8,0.7,1.4,1.1,2,1.8
	C189.7,154.2,190.2,155.2,190.6,156.5z"/>
    <path class="st36" d="M216.1,246.6c-0.7-0.4-1.8-1.1-2-2c-0.5-1.8-0.6-3.7-0.9-5.9C214.1,240.9,215.1,243.6,216.1,246.6z"/>
    <path class="st36" d="M227.1,308.4c2.2,0.4,4.4,1.1,6.6,2.1C231.5,310.2,229.3,309.5,227.1,308.4z"/>
    <path class="st36" d="M212.3,237.2c-2.2-0.4-4.4-1.1-6.7-2.2C207.8,235.4,210,236.1,212.3,237.2z"/>
    <path class="st8" d="M290,473.4c1.6-1.8-2.2-5.4,2.4-6.1c-0.3,1.9-0.9,3.8-1.6,6C290.6,473.6,290.1,473.5,290,473.4z"/>
    <path class="st36" d="M222.3,305.6c1.6,0.4,3.2,1.1,4.7,2.1C225.5,307.4,223.9,306.6,222.3,305.6z"/>
    <path class="st32" d="M175.3,114.8c-1.6-1.1-3.1-2.5-4.7-4.2C172.2,111.6,173.8,113,175.3,114.8z"/>
    <path class="st36" d="M260.6,306.4c-1.6-0.4-3.2-1.1-4.7-2.1C257.4,304.6,259,305.3,260.6,306.4z"/>
    <path class="st36" d="M234.2,281.8c-3.1,0.5-3.2-1.5-3-4C232.3,278.7,233.3,280.1,234.2,281.8z"/>
    <path class="st5" d="M381.8,499.8c-2.7,0.4-5.8,0.5-9.2,0.4C375.3,499.9,378.4,499.7,381.8,499.8z"/>
    <path class="st36" d="M230.4,276.1c-3.1,0.5-3.2-1.5-3-4C228.5,273,229.5,274.4,230.4,276.1z"/>
    <path class="st5" d="M385.3,548.8c-0.4-2.7-0.5-5.8-0.4-9.2C385.2,542.2,385.4,545.4,385.3,548.8z"/>
    <path class="st32" d="M170.6,109.9c-1.2-0.7-2.5-1.7-3.7-3.1C168.1,107.5,169.3,108.5,170.6,109.9z"/>
    <path class="st32" d="M166.8,106.1c-1.5-1-3.1-2.4-4.7-4.1C163.7,103.1,165.2,104.4,166.8,106.1z"/>
    <path class="st32" d="M180.9,121.6c-0.9-0.8-1.9-1.9-2.7-3.4C179.2,119,180.1,120.1,180.9,121.6z"/>
    <path class="st36" d="M279.6,315.9c-1.2,0-2.5-0.4-3.8-1.2C277,314.7,278.3,315.1,279.6,315.9z"/>
    <path class="st36" d="M162.4,223c0.8,0.7,1.5,1.7,2.1,3.1C163.7,225.5,163,224.4,162.4,223z"/>
    <path class="st36" d="M243.2,315.1c1.2,0,2.5,0.4,3.8,1.2C245.7,316.2,244.5,315.8,243.2,315.1z"/>
    <path class="st36" d="M264.4,308.3c-1.2,0-2.5-0.4-3.8-1.2C261.9,307.1,263.1,307.5,264.4,308.3z"/>
    <path class="st36" d="M223.7,263.7c-0.7-0.7-1.4-1.7-2-3.1C222.4,261.3,223,262.3,223.7,263.7z"/>
    <path class="st36" d="M225.6,267.5c-0.7-0.7-1.4-1.7-2-3.1C224.3,265.1,224.9,266.1,225.6,267.5z"/>
    <path class="st36" d="M247,317c1.2,0.1,2.5,0.4,3.8,1.2C249.5,318.1,248.3,317.7,247,317z"/>
    <path class="st36" d="M221.8,259.9c-0.7-0.7-1.4-1.7-2-3.1C220.5,257.5,221.1,258.5,221.8,259.9z"/>
    <path class="st36" d="M227.5,271.3c-0.7-0.7-1.4-1.7-2-3.1C226.2,268.9,226.8,269.9,227.5,271.3z"/>
    <path class="st5" d="M371.7,500.1c-0.4,1-1.1,2-2.2,3C369.9,502,370.6,501,371.7,500.1z"/>
    <path class="st36" d="M268.2,310.2c-1.2-0.1-2.5-0.4-3.8-1.2C265.7,309,266.9,309.4,268.2,310.2z"/>
    <path class="st36" d="M272,312.1c-1.2-0.1-2.5-0.4-3.8-1.2C269.4,310.9,270.7,311.3,272,312.1z"/>
    <path class="st36" d="M275.8,314c-1.2-0.1-2.5-0.4-3.8-1.2C273.2,312.8,274.5,313.2,275.8,314z"/>
    <path class="st32" d="M182.1,124.7c-0.6-0.6-1-1.4-1.3-2.5C181.3,122.7,181.8,123.6,182.1,124.7z"/>
    <path class="st19" d="M274.7,412.6c0.2,0.8,0.2,1.9,0,3.2C274.4,414.8,274.5,413.9,274.7,412.6z"/>
    <path class="st16" d="M486,386c0.5-0.1,1.1,0,2,0.4C487.5,386.5,486.8,386.4,486,386z"/>
    <path class="st17" d="M142.5,290.7c-0.5,0.4-1.2,0.7-2.4,0.9C140.6,291.2,141.4,290.9,142.5,290.7z"/>
    <path class="st5" d="M385.1,538.8c-0.5-0.4-0.9-1.1-1.1-2.2C384.5,537,384.8,537.7,385.1,538.8z"/>
    <path class="st5" d="M367.9,523.1c0.3,0.8,0.2,1.7-0.2,2.7C367.4,524.9,367.5,524.1,367.9,523.1z"/>
    <path class="st24" d="M486.6,428.1c0.3,0.7,0.4,1.7,0.4,3.1C486.7,430.6,486.5,429.5,486.6,428.1z"/>
    <path class="st5" d="M384.4,551.1c-0.2-0.6-0.1-1.3,0.3-2C384.9,549.7,384.8,550.3,384.4,551.1z"/>
    <path class="st24" d="M487.6,434.4c0.5,0.2,0.9,0.7,1.1,1.5C488.2,435.7,487.8,435.2,487.6,434.4z"/>
    <path class="st31" d="M508.4,343.3c-0.6,0.2-1.2,0.1-2-0.4C507.1,342.7,507.7,342.9,508.4,343.3z"/>
    <path class="st16" d="M481.7,376.4c0.3-0.1,0.5,0.1,0.3,0.5C481.9,377.1,481.7,376.6,481.7,376.4z"/>
    <path class="st36" d="M156.8,215.4c0.3-0.1,0.6,0,0.9,0.5C157.5,216,157.1,215.8,156.8,215.4z"/>
    <path class="st16" d="M482,379.3c0.2,0,0.3,0.2,0.4,0.6C482.1,379.9,482,379.7,482,379.3z"/>
    <path class="st36" d="M280.6,316.9c-0.3,0.1-0.6,0-1-0.5C279.9,316.3,280.2,316.5,280.6,316.9z"/>
    <path class="st32" d="M153.4,93c-0.3,0.1-0.6-0.1-1-0.5C152.6,92.4,153,92.6,153.4,93z"/>
    <path class="st32" d="M154.4,94c-0.3,0.1-0.6,0-1-0.4C153.7,93.4,154.1,93.5,154.4,94z"/>
    <path class="st32" d="M155.3,94.9c-0.3,0.1-0.6,0-1-0.4C154.7,94.4,155,94.5,155.3,94.9z"/>
    <path class="st32" d="M156.3,95.9c-0.3,0.1-0.6,0-1-0.4C155.6,95.3,156,95.4,156.3,95.9z"/>
    <path class="st32" d="M157.2,96.8c-0.3,0.1-0.6,0-1-0.4C156.6,96.2,156.9,96.4,157.2,96.8z"/>
    <path class="st32" d="M158.2,97.8c-0.3,0.1-0.6,0-1-0.4C157.5,97.2,157.8,97.3,158.2,97.8z"/>
    <path class="st32" d="M159.1,98.7c-0.3,0.1-0.6,0-1-0.4C158.5,98.1,158.8,98.3,159.1,98.7z"/>
    <path class="st32" d="M160.1,99.6c-0.3,0.2-0.6,0-1-0.4C159.4,99.1,159.7,99.2,160.1,99.6z"/>
    <path class="st32" d="M161.1,100.4c-0.3,0.1-0.6,0-0.9-0.3C160.4,100,160.7,100.1,161.1,100.4z"/>
    <path class="st32" d="M162,101.4c-0.3,0.1-0.6,0-0.9-0.4C161.5,100.9,161.7,101,162,101.4z"/>
    <path class="st36" d="M194.7,274.2c0.3-0.1,0.6,0,0.9,0.5C195.4,274.8,195.1,274.6,194.7,274.2z"/>
    <path class="st36" d="M231.2,277.1c-0.3,0.1-0.6,0-0.9-0.5C230.6,276.5,230.9,276.6,231.2,277.1z"/>
    <path class="st32" d="M178.2,117.5c-0.3,0.1-0.6,0-0.9-0.3C177.5,117,177.8,117.1,178.2,117.5z"/>
    <path class="st25" d="M529.6,388.6c0.2,0.1,0.2,0.3,0.1,0.7c-0.2,0.1-0.4-0.1-0.5-0.3C529.3,388.9,529.4,388.8,529.6,388.6z"/>
    <path class="st32" d="M176.2,115.8c-0.3,0.1-0.6,0-0.9-0.5C175.5,115.2,175.8,115.4,176.2,115.8z"/>
    <path class="st36" d="M255.9,303.6c-0.3,0.1-0.6,0-0.9-0.5C255.2,303.1,255.5,303.2,255.9,303.6z"/>
    <path class="st32" d="M177.2,116.7c-0.3,0.1-0.6,0-1-0.4C176.5,116.1,176.8,116.3,177.2,116.7z"/>
    <path class="st36" d="M213.7,297c0.3-0.1,0.6,0,0.9,0.5C214.4,297.5,214,297.4,213.7,297z"/>
    <path class="st36" d="M221.3,304.5c0.3-0.1,0.6,0,0.9,0.5C222,305.1,221.7,305,221.3,304.5z"/>
    <path class="st36" d="M204.2,285.6c0.3-0.1,0.6,0,0.9,0.5C204.9,286.2,204.6,286,204.2,285.6z"/>
    <path class="st36" d="M235,282.8c-0.3,0.1-0.6,0-0.9-0.5C234.4,282.2,234.7,282.3,235,282.8z"/>
    <path class="st24" d="M486.7,432.6c0.4-0.1,0.7,0.1,1,0.7C487.4,433.4,487,433.2,486.7,432.6z"/>
    <path class="st40" d="M497.5,144c0,14.8-0.2,29.6,0,44.4c0.2,13.4,0.5,26.7-5.6,39.1c-8.7,17.4-22,29.1-41.7,31.7
	c-10.4,1.3-21,1.1-31.6,1.2c-35.4,0.1-70.8,0.3-106.1,0c-28.9-0.2-51.5-20-56.7-47.4c-0.1-19.1,0-37.4-0.3-55.8
	c-0.2-10.1,0.7-19.8,5.6-29.2c11.5-21.1,28.2-32.9,52.8-32.6c41.7,0.4,83.5,0,125.2,0.2c8.6,0,17.1,1.2,25.1,5
	c11.7,5.6,20.1,14.4,26.9,25.5C493.2,132.3,495.3,138.2,497.5,144 M297.9,123.3c3,3.4,6,6.7,9.2,10.6c-2.6,1.1-5.2,2.2-8.2,2.8
	c-2.7-3.3-5.3-6.7-8.4-10.5c-2.3-2.7-4.6-5.4-7.6-9c-3.5,3.6-6.8,7-10.6,10.7c-0.1,0.3-0.2,0.6-0.3,1.5c-0.1,0.4-0.1,0.7-0.8,1
	c-0.6,1-1.2,2-2.5,3.3c-2.8,7.1-2.1,9.3,3.7,11.1c1.1,0.3,2.5-0.1,3.5,0.4c2.4,1.1,6.2,2.4,6.4,4c0.3,2.4-2,5.1-3.6,8.8
	c-0.2,0.9-0.6,3.1-1.1,5.3c-0.7,3-1.9,6-1.9,9c0.1,4.9,0.9,9.8,1.7,14.6c0.2,0.9,1.9,1.6,3,2.5c0,0,0.1,0.1,0,0.8
	c-0.9,3.1,2.5,8.1,7.7,11.1c-0.5,0.6-1,1.3-0.7,0.9c1.8,2.5,3,4.5,4.5,6.3c1,1.2,2.9,3.4,3.1,3.2c3.5-2.4,2.7,0.9,2.9,2.5
	c-0.1,0.4-0.1,0.7-0.2,1.1c0.1,0,0.2,0,0.3,0.1c0.1-0.4,0.2-0.9,0.9-1.1c1.7,0.7,3.3,1.8,5.1,2c1.8,0.3,4.5-1.1,5.5-0.2
	c2.3,2,4.7,2.5,7.5,3c4.1,0.8,7.6,0.9,10.5-2.2c2,0.2,3.8-0.3,5.7-0.5c2.4-0.3,4.8-0.4,7.2-0.3c0.6,0,1.2,0.7,1.9,1.1
	c0.2-0.8,0.8-1.6,0.7-2.3c-0.5-4.2,1.1-5.6,4.5-3.9c0.4-1.7,0.8-4.3,1.2-4.3c4.5,0.1,3.8-3.7,4.9-6.3c0.5,0.6,0.9,1.1,0.5,0.6
	c1.4-1.4,2.7-2.8,4.1-4.1c2-1.9,4.3-3.5,3.8-6.9c-0.2-1.6-0.2-3.5,0.4-5c1.5-3.9,0.3-7-1.9-10.1c1.1-1,2.2-2.1,3.3-3.2
	c-6.6-4-0.1-10.4-4.1-14.9c-0.8-0.2-2.4-0.6-4.3-1.2c0.7-1.7,1.1-3,1.2-3.2c-1.4-1.6-2.3-2.7-2.8-3.8c0.2-0.2,0.4-0.4,0.7-0.6
	c-0.4-0.1-0.7-0.2-1.1-0.9c-0.5-1-0.9-1.9-1.1-2.2c-1.5,0.2-2.6,0.7-3.6,0.5c-3.9-0.8-6.1-4.6-9.1-6c-3.7-1.7-7-3.3-10.1-6.2
	c-1.2-1.1-4-0.4-6.6-0.6c-0.5-1.3-1.5-3.7-4.9-2.5c-2.5-4.8-4.9-9.7-7.8-15.1c-0.8-2.9-1.6-5.8-2.6-9.4c-6.2,2.8-11.8,5.3-17.9,8
	C292.8,117.1,295.3,119.9,297.9,123.3 M325.2,103.9c-2.9,0.6-5.8,1.3-9.3,2.1c1.9,3.4,3.3,5.8,4.2,8.5c1.2,1.6,2.3,3.1,3.7,4.9
	c6.1-0.8,12.3-1.6,18.5-2.3c0.2-0.6,0.4-1.2,0.6-1.9c-3.1-3-6.1-6-9.3-8.8c-2.2-1.9-4.8-3.5-7-5
	C326.5,101.8,326.2,102.8,325.2,103.9 M404.2,164.7c-0.5,0.3-1.5,0.5-1.6,0.8c-0.4,4.1-0.4,8.2-1,12.2c-1.1,7.7,3,14,6.8,19.6
	c2.7,4,8.1,6.4,12.6,8.9c6.6,3.6,13.7,2.6,20.6,0.8c5.5-1.5,10.5-4.3,14.3-9c4-4.9,7.9-10.1,8.2-16.5c0.2-5.5,0.4-11-1.6-16.7
	c-2.3-6.4-6-11.6-11.1-15c-8.8-5.8-18.9-8.9-29.6-4.7c-3.3,1.3-6.8,2.7-9.3,5c-2.9,2.6-4.9,6.2-6.9,9.5
	C404.7,160.8,404.7,162.6,404.2,164.7 M360.6,234.8c6.3,4.2,13.4,5,20.6,4.2c6.2-0.7,11.6-3.7,15.4-9c2.1-2.8,2.3-6-0.5-8.5
	c-2.6-2.3-4.9-1.4-7.3,1c-9,9-16.3,8.9-25.5-0.2c-2.3-2.3-4.5-3.7-7.2-1.2c-2.8,2.6-3.2,5.8-0.8,8.8
	C356.6,231.6,358.5,232.9,360.6,234.8z"/>
    <path class="st41" d="M490.9,125.8c-6.7-10.7-15.2-19.5-26.9-25.2c-8-3.9-16.5-5-25.1-5c-41.7-0.2-83.5,0.2-125.2-0.2
	c-24.6-0.2-41.2,11.5-52.9,32.4c-1.9,1.1-3.4,2.3-4.2,2.8c-1-0.4-1.9-0.8-2.8-1.1c1.4-8.3,6-15,11.2-21.3c7.5-9,17.6-14.2,28-18.9
	c1.3-0.6,3-0.5,5.1-0.4c5.7-0.2,10.7-1,15.8-1c44.2-0.1,88.5-0.1,132.7-0.1c1.8,0.1,3.7-0.2,5.5,0.2c18.8,5,34.2,14.6,43.4,32.9
	C493.9,122.9,492.4,124.4,490.9,125.8z"/>
    <path class="st42" d="M446.5,87.4c-44.1,0.4-88.3,0.4-132.6,0.5c-5.1,0-10.2,0.9-15.5,1c-0.2-0.3-0.2-0.3,0.2-0.3
	c1.1-0.3,1.9-0.5,2.6-0.8c47.3-3.9,94.7-0.4,142-1.5C444.3,86.3,445.3,86.8,446.5,87.4z"/>
    <path class="st43" d="M253.6,129.7c1.2,0.1,2.1,0.5,3.1,0.9c0.8-0.6,2.3-1.7,3.9-2.6c-4.5,9.4-5.4,19.1-5.2,29.2
	c0.4,18.3,0.2,36.6,0.2,55.4c-0.4-1.8-1-4.1-1-6.3c-0.1-21.2,0-42.4,0-64.1c-1.4,0.6-2.4,1-4,1.6C251.5,139,252.4,134.5,253.6,129.7
	z"/>
    <path class="st31" d="M491,126.2c1.4-1.8,2.9-3.3,4.6-5c2.1,6.6,4.1,13.3,6,20.1c0.1,0.5-0.5,1.2-1,2.1c-0.2,0.3-0.2,0.3-0.2,0.3
	c-0.9-0.1-1.7-0.1-2.8,0C495.3,138.2,493.2,132.3,491,126.2z"/>
    <path class="st41" d="M300.9,87.8c-0.4,0.3-1.2,0.6-2.3,0.8C299,88.3,299.8,88.1,300.9,87.8z"/>
    <path class="st31" d="M500.4,143.8c0.1,0.4,0.2,0.9,0.4,1.3c-0.1-0.3-0.3-0.5-0.4-1C500.4,143.8,500.4,143.8,500.4,143.8z"/>
    <path class="st44" d="M399,407.5c-2.3,1.9-4.7,3.8-7.5,5.4c-3-0.7-5.5-1.3-7.2-1.6c-0.2,2-0.4,3.3-0.5,4.3c1.4-0.2,2.9-0.4,4.4-0.6
	c-16.5,9.6-43.1-4.2-43.6-27.1c-0.2-7.1,1.2-13.7,4.8-19.8c2,3.5,3.8,2,5.6,0.3c7.1-6.8,14.8-11.6,25.4-10.3
	c6.7,0.8,17.8,7.9,19.3,14c1.2,4.6,5.7,8.6,3.1,14.1c-0.3,0.6,0.7,1.7,1.5,3.2c0.9-4,1.5-7.2,2.2-10.4c0.2,4,0.5,8,0.1,12.2
	c-5.7-0.4-4.5,3.3-4.8,6.3c-0.1,0.7-0.1,1.1,0,1.5c0,0,0,0-0.3,0c-2.3,2-4.2,4.1-6.5,6.5c1.7,0.7,2.7,1.1,3.9,1.7
	C398.9,407.3,399,407.5,399,407.5 M389.5,401.8c0,0,0.1,0.1,0.7,0c0.4-0.6,0.9-1.2,1.4-1.8c0,0,0,0,0.7-0.1
	c6.5-6.9,7.3-16.7,2.5-24.5c-5.2-8.4-15.9-14.1-25.8-9.5c-3.1,2-6.6,3.5-9.1,6.1c-9.5,9.6-8,23.1,3,30c0,0,0,0,0.2,0.6
	c1.9,1.2,3.8,2.3,6.3,3.6c0.4,0,0.8,0,1.6,0.7c0.9,0,1.7,0.1,3.4,0.3c2.2-0.1,4.4-0.1,7.3-0.2c2-1.1,4-2.2,6.4-3.6
	c0.2-0.1,0.3-0.1,1-0.2C389.1,402.8,389.4,402.4,389.5,401.8z"/>
    <path class="st0" d="M406.5,378.6c-0.7,3.6-1.4,6.8-2.2,10.8c-0.7-1.5-1.7-2.6-1.5-3.2c2.6-5.5-1.9-9.5-3.1-14.1
	c-1.5-6.1-12.6-13.2-19.3-14c-10.6-1.3-18.3,3.6-25.4,10.3c-1.8,1.7-3.6,3.2-5.3-0.5c9.6-15.9,32.7-19.2,46.6-7.7
	C401.9,364.9,405.1,371.1,406.5,378.6z"/>
    <path class="st45" d="M401.8,397.2c0.3-2.7-0.9-6.5,4.4-5.8c-0.6,5.9-2.9,11.2-7,16c-0.3,0.2-0.4-0.1-0.4-0.5c1-2.9,1.9-5.4,2.9-7.9
	c0,0,0,0,0.2-0.1C402.1,398.2,402,397.7,401.8,397.2z"/>
    <path class="st0" d="M388.5,414.8c-1.8,0.4-3.3,0.6-4.7,0.8c0.1-1,0.3-2.2,0.5-4.3c1.7,0.3,4.2,0.9,6.8,1.7
	C390.5,413.7,389.6,414.2,388.5,414.8z"/>
    <path class="st11" d="M252.8,271.8c-0.1-0.1-0.2-0.3-0.4-0.4c0.1,0,0.2,0.1,0.3,0.3C252.8,271.8,252.8,271.8,252.8,271.8z"/>
    <path class="st11" d="M422.1,299.8C422.2,299.7,422.1,299.8,422.1,299.8z"/>
    <path class="st46" d="M124.9,168.2c-3.9-2.7-6.7-5.9-6.7-11.2c0-3.3-8.9-10.6-12.1-9.9c-1.4,0.3-2.8,1.6-3.9,2.7
	c-3.2,3.2-7.2,5.6-7.2,11.5c0,2.3-4.2,4.6-6.3,7c-3,3.5-5.6,0.6-8.2-0.4c-5.2-2.2-8-6.1-7.6-10.2c0.5-5.5,4.4-10.3,9.6-11.4
	c1.4-0.3,3.3-0.4,4.5,0.3c3.6,2,5.8,0.4,8.2-2c1.7-1.8,3.9-3.1,5.6-4.9c1-1,1.6-2.5,2.1-3.9c0.3-0.8-0.1-1.9,0.1-2.8
	c2.4-9.6-3.6-14.9-10.3-19.7c-1.1-0.8-3.3-0.9-4.7-0.5c-4.7,1.2-9.5,0.1-12.3-3.5c-2.8-3.6-3.4-7.7-1.5-11.9c2-4.5,6-6.8,11.1-6.5
	c4.5,0.2,10.2,4.5,9.8,8.6c-0.5,4.7,2.4,6.8,5.1,9.2c6.6,5.8,6.4,5.6,13.1,0.2c3-2.5,5.1-4.8,5.5-9.1c0.7-6.1,7.4-9.9,13.6-8.8
	c5.3,0.9,9.6,7.3,8.8,12.8c-0.9,6.2-7,11-13.5,9.5c-4.3-1-7.5-0.3-10.7,2.6c-4,3.5-6.3,7.1-6.9,13c-1.1,9.6,5.2,13.4,10.9,18.1
	c0.9,0.7,3,0.5,4.3,0c4.6-1.7,8.5-0.4,11.7,2.6c3.4,3.2,5.2,7.1,2.6,12.5C135.2,168.5,132,169.8,124.9,168.2z"/>
    <path class="st47" d="M125,168.5c7,1.3,10.2-0.1,14.5-6.5c0.5,0.1,1.2,0.5,1.1,0.6C138.7,168.3,130.5,171.5,125,168.5z"/>
    <path class="st14" d="M401.8,476.7c0.3-0.1,0.5-0.2,0.9-0.2c0.1,0.2,0.1,0.2-0.2,0.2C402.1,476.7,401.9,476.7,401.8,476.7
	C401.8,476.7,401.8,476.7,401.8,476.7z"/>
    <path class="st8" d="M262.9,281.8c0.4,0.1,0.7,0.3,1,0.5c-0.2,0.2-0.4,0.3-0.5,0.5C263.1,282.5,262.9,282.3,262.9,281.8z"/>
    <path class="st8" d="M383.8,306c-0.3,0.2-0.7,0.5-1,0.7c0,0-0.2-0.2-0.2-0.3c0.3-0.1,0.5-0.2,1-0.4C383.7,306,383.7,306,383.8,306z"
    />
    <path class="st8" d="M411.3,303.1c-0.1,0.4-0.2,0.8-0.4,1.3c0-0.3,0-0.7,0.2-1.1C411.3,303.1,411.3,303.1,411.3,303.1z"/>
    <path class="st8" d="M266.1,282.5c0.1,0.2,0.1,0.3,0,0.5C266.1,282.8,266,282.6,266.1,282.5z"/>
    <path class="st8" d="M501.6,390.3c-4.4-3.7-8.7-7.3-12.6-11.4c-1.7-1.8-2.5-4.5-3.7-7.2c0.9-0.3,2.4-0.5,2.5-0.1
	c3.4,7.7,10.4,11.5,17.5,16.2C504.1,388.7,503,389.4,501.6,390.3z"/>
    <path class="st8" d="M485.3,371c-0.6-0.7-1.3-1.7-1.9-3.1C486.4,367.2,485.4,369.2,485.3,371z"/>
    <path class="st24" d="M519.4,429.3c-0.4-0.1-0.8-0.2-1.2-0.3c0.3,0,0.7,0,1.1,0.2C519.4,429.3,519.4,429.3,519.4,429.3z"/>
    <path class="st26" d="M303.1,527.9c0.1,0.1,0.3,0.3,0.4,0.4c-0.1,0-0.2-0.1-0.3-0.3C303.1,528,303.1,528,303.1,527.9z"/>
    <path class="st8" d="M460.6,460.6c0.4-0.1,0.8-0.2,1.3-0.4c-0.3,0.1-0.5,0.2-1,0.4C460.6,460.6,460.6,460.6,460.6,460.6z"/>
    <path class="st8" d="M401.8,477c0.2-0.2,0.3-0.2,0.7-0.2c0,0.4-0.2,0.8-0.4,1.2C402,477.7,401.9,477.4,401.8,477z"/>
    <path class="st8" d="M458.7,462.5c-0.1,0-0.2,0.1-0.2,0C458.7,462.5,458.7,462.5,458.7,462.5z"/>
    <path class="st28" d="M168.9,333.5c7.2,2.6,8.9,10.3,14.5,14.8c0.4-0.8,0.6-1.4,1.1-2.5c1.6,3.3,7.7,3.2,5.7,9.1
	c-1.4-0.6-2.8-1.5-4.1-2.6c-0.5-0.4-1-1.8-1-1.7c-3.9,1.8-5.8-1.8-8.7-2.9C169.6,345.2,167.5,341.7,168.9,333.5z"/>
    <path class="st47" d="M541.6,391.7c1.5-0.5,2.7-0.8,4.8-1.3c0.2,1.5,1.1,4,0.6,4.3c-1.6,1-3.7,1.2-6.1,1.9
	C541.1,394.4,541.2,393.1,541.6,391.7z"/>
    <path class="st7" d="M299.3,534.6c-0.2,0.5-0.4,0.7-0.7,0.9c0.1-0.6,0.2-1.3,0.3-1.9C299.1,533.8,299.2,534.1,299.3,534.6z"/>
    <path class="st7" d="M309.7,509c-0.1-0.1-0.2-0.3-0.4-0.4c0.1,0,0.2,0.1,0.3,0.3C309.8,509,309.8,509,309.7,509z"/>
    <path class="st10" d="M548.8,191.2c-0.1-0.2-0.2-0.3-0.3-0.5c0.1,0,0.2,0.1,0.3,0.3C548.8,191.2,548.8,191.2,548.8,191.2z"/>
    <path class="st10" d="M548.8,191.2c0.1,0.1,0.2,0.3,0.3,0.5c-0.1,0-0.2-0.1-0.3-0.3C548.8,191.2,548.8,191.2,548.8,191.2z"/>
    <path class="st48" d="M280.2,189.2c-1-0.8-2.7-1.5-2.9-2.4c-0.8-4.8-1.6-9.7-1.7-14.6c0-3,1.3-6,1.9-9c0.5-2.2,0.9-4.4,1.1-5.3
	c1.7-3.7,4-6.4,3.6-8.8c-0.2-1.6-4.1-2.8-6.4-4c-1-0.5-2.4,0-3.5-0.4c-5.8-1.7-6.5-3.9-3.1-11c3,3,5.5,6,8.2,9.2
	c0.7-0.9,1.2-1.6,1.9-2.6c2.8,3.1,5.6,6.2,8.7,9.6c4-4.5,7.7-8.7,11.3-12.8c2.6-1.1,5.2-2.2,8.1-3.5c3.7-1.2,7.2-2.1,10.7-3.1
	c3.4-1.8,4.4,0.5,4.9,1.8c2.6,0.2,5.5-0.5,6.6,0.6c3,2.8,6.3,4.5,10.1,6.2c3,1.4,5.2,5.2,9.1,6c1,0.2,2.1-0.2,3.6-0.5
	c0.2,0.3,0.6,1.3,1.1,2.6c0,0.3,0,0.4-0.2,0.4c-0.1,0.3,0.1,0.6,0.2,0.8c0,0,0,0,0,0c0.9,1.1,1.9,2.2,3.2,3.8
	c-0.1,0.2-0.5,1.5-1.2,3.2c1.9,0.5,3.5,0.9,4.3,1.2c4,4.5-2.5,11,4.1,14.9c-1.2,1.1-2.3,2.2-3.3,3.2c2.2,3,3.4,6.2,1.9,10.1
	c-0.6,1.5-0.6,3.3-0.4,5c0.5,3.4-1.8,5-3.8,6.9c-1.4,1.3-2.8,2.7-4.1,4.1c0.4,0.5,0,0-0.5-0.6c-1.1,2.6-0.3,6.4-4.9,6.3
	c-0.3,0-0.7,2.6-1.2,4.3c-3.4-1.7-5-0.3-4.5,3.9c0.1,0.7-0.4,1.6-0.7,2.3c-0.6-0.4-1.2-1.1-1.9-1.1c-2.4,0-4.8,0.1-7.2,0.3
	c-1.9,0.2-3.7,0.7-5.7,0.5c-2.9,3.1-6.4,3-10.5,2.2c-2.8-0.5-5.2-1-7.5-3c-1-0.9-3.7,0.5-5.5,0.2c-1.8-0.3-3.4-1.3-5.4-2.1
	c-0.3-0.1-0.3-0.1-0.3-0.1c-0.6-1.4,0.1-4.7-3.4-2.3c-0.2,0.1-2.2-2-3.1-3.2c-1.4-1.8-2.7-3.8-4.5-6.3c-0.3,0.4,0.2-0.3,0.7-0.9
	c-5.2-3-8.7-8-7.5-11.5C280.5,189.2,280.4,189.2,280.2,189.2 M284,151.1c-0.1-0.1-0.2-0.1-0.3-0.2c0.1,0.1,0.3,0.3,0.5,0.7
	c0.1,0.1,0.2,0.1,0.3,0.2C284.4,151.7,284.3,151.5,284,151.1 M288.2,176c0.9,3.6,2.2,7.1,2.7,10.7c1.1,9,7.6,13.7,14.4,18
	c2.5,1.6,5.7,2.4,8.7,2.6c3.5,0.2,7.1-1.1,10.7-0.9c7.7,0.5,13.5-3.6,18.1-8.5c10.5-11.3,10.1-24.2,3.9-37.7
	c-2.3-5.1-5.3-9-10.6-11.5c-4.9-2.2-8.8-4.9-15.2-4.8c-8.8,0.1-15.6,2.7-22.5,7.1c-1,0.7-2.1,1.5-2.7,2.5
	C291.5,160.2,288.8,167.5,288.2,176 M282.7,191.8l0.1-0.2C282.8,191.6,282.5,191.6,282.7,191.8z"/>
    <path class="st49" d="M404.3,164.4c0.4-1.8,0.4-3.7,1.2-5c2.1-3.3,4.1-6.9,6.9-9.5c2.5-2.3,6.1-3.7,9.3-5
	c10.7-4.2,20.7-1.1,29.6,4.7c5.1,3.4,8.8,8.6,11.1,15c2.1,5.7,1.9,11.2,1.6,16.7c-0.3,6.4-4.2,11.6-8.2,16.5
	c-3.8,4.7-8.8,7.5-14.3,9c-6.8,1.9-14,2.9-20.6-0.8c-4.5-2.5-9.9-4.9-12.6-8.9c-3.8-5.6-7.9-11.9-6.8-19.6c0.6-4,0.6-8.1,1-12.2
	C402.7,165.2,403.7,165,404.3,164.4 M423.1,154.3c-0.5,0.6-0.9,1.2-1.4,1.8c0,0,0,0-0.7-0.1c-1.4-0.2-2.7-0.5-4-0.7
	c-0.6,1.1-1.4,2-1.8,3.1c-2,5.7-5.8,11.5-5.4,17c0.7,9.8,6.2,21.4,20.1,22.6c3,0.3,6,0.5,9.1,1.4c-0.9,3.1,1,4.5,3.4,3.7
	c8.2-2.7,14.1-8.4,17.5-16.4c1-2.3,1.9-5.6-1.5-7.3c-1.1,1.9-2.2,3.7-3.3,4.7c4.6-13.9-1.8-26.3-13.5-30.6
	c-3.6-1.3-8.1-6.7-12.7,0.1c-0.2,0-0.4-0.1-0.8-0.7c-1.5,0.5-2.9,1.1-4.3,1.5C423.7,154.3,423.8,154.4,423.1,154.3z"/>
    <path class="st50" d="M360.3,234.6c-1.9-1.7-3.7-3-5.1-4.7c-2.4-3-2.1-6.3,0.8-8.8c2.7-2.5,4.9-1.1,7.2,1.2
	c9.2,9.1,16.4,9.2,25.5,0.2c2.4-2.4,4.7-3.3,7.3-1c2.8,2.5,2.6,5.6,0.5,8.5c-3.8,5.2-9.2,8.2-15.4,9
	C374,239.9,366.9,239.1,360.3,234.6z"/>
    <path class="st51" d="M299.1,136.9c-3.4,4.3-7.1,8.4-11.1,13c-3.1-3.4-5.8-6.5-8.7-9.6c-0.7,1-1.2,1.6-1.9,2.6
	c-2.7-3.2-5.2-6.2-7.9-9.3c0.4-1.2,1-2.2,2.2-2.9c2.4,3.2,4.3,6.1,5.5,8c5-4.4,9.3-8.2,13.6-12C293.5,130,296.2,133.3,299.1,136.9z"
    />
    <path class="st52" d="M325.8,103.9c0.3-1,0.7-2,0.8-2.5c2.2,1.6,4.8,3.1,7,5c3.2,2.8,6.2,5.9,9.3,8.8c-0.2,0.6-0.4,1.2-0.6,1.9
	c-6.2,0.8-12.4,1.6-18.5,2.3c-1.4-1.8-2.5-3.4-3.1-5.1c1.5-1.1,2.7-1.9,3.4-3c1.3-2,2.4-4.2,3.7-6.4
	C327.4,104.8,326.6,104.3,325.8,103.9z"/>
    <path class="st31" d="M290.6,126.4c-4.1,4.1-8.5,7.9-13.4,12.2c-1.2-1.9-3.1-4.9-5.2-8c-0.2-0.6-0.1-0.9,0.2-1.7
	c0.4-0.7,0.4-1,0.5-1.3c3.3-3.4,6.6-6.9,10.1-10.4C285.8,120.7,288.1,123.4,290.6,126.4z"/>
    <path class="st53" d="M318,130.2c-3.4,1.3-6.9,2.2-10.7,3.1c-3.4-3.4-6.4-6.7-9.1-10.3c4.3-2.7,8.4-5.2,12.5-7.7
	C313.1,120.2,315.5,125,318,130.2z"/>
    <path class="st54" d="M310.4,115.1c-3.9,2.7-7.9,5.2-12.4,7.6c-2.8-2.8-5.2-5.6-8.4-9.2c6.1-2.8,11.7-5.3,17.9-8
	C308.6,109,309.4,111.9,310.4,115.1z"/>
    <path class="st14" d="M325.5,103.9c1.1,0.4,1.9,0.9,2.3,1.1c-1.3,2.2-2.3,4.4-3.7,6.4c-0.7,1.1-1.9,2-3.2,2.9
	c-1.7-2.5-3.1-4.9-5-8.3C319.4,105.2,322.3,104.6,325.5,103.9z"/>
    <path class="st48" d="M298.4,214c-0.1,0.4-0.2,0.9-0.3,1.3c-0.1,0-0.2,0-0.3-0.1c0.1-0.4,0.1-0.7,0.4-1.2
	C298.3,213.9,298.4,214,298.4,214z"/>
    <path class="st48" d="M353.4,147.5c0.4,0.1,0.8,0.2,1.1,0.3c-0.2,0.2-0.4,0.4-0.9,0.6c-0.2,0-0.2,0-0.2-0.2
	C353.4,148.1,353.4,147.6,353.4,147.5C353.4,147.6,353.4,147.6,353.4,147.5z"/>
    <path class="st51" d="M272.5,127.7c0.2,0.2,0.1,0.5-0.2,1C272.1,128.5,272.2,128.1,272.5,127.7z"/>
    <path class="st55" d="M370,365.8c9.2-4.5,19.9,1.2,25.1,9.5c4.8,7.8,4,17.6-2.8,24.2c1.8-3.5,0.7-6.9-0.2-10.5
	c0.9-6-0.6-10.8-4.8-14.9c-4.4-4.2-9.7-5-15.4-4.9c-0.7-1.1-1.3-1.9-1.9-2.7c0,0,0,0,0-0.2C370,366.3,370,365.8,370,365.8z"/>
    <path class="st56" d="M369.2,365.8c0.4,0,0.3,0.4,0.1,0.7c-0.8,0.7-1.3,1.1-1.9,1.5c0.2,0.2,0.5,0.4,0.7,0.6c0.5-0.7,0.9-1.3,1.4-2
	c0.6,0.8,1.3,1.6,1.7,2.9c-8.5,3.3-14.7,12.9-9.2,24.7c0.2,2.8,0.4,5.2,0.7,7.6c-10.9-7-12.4-20.5-2.9-30
	C362.3,369.4,365.8,367.9,369.2,365.8z"/>
    <path class="st57" d="M362.7,402c-0.3-2.4-0.5-4.9-0.4-7.5c5.5,7.2,14,9.7,20.6,5.5c4-2.5,7.5-5.6,8.7-10.6
	c0.9,3.3,2.1,6.6-0.1,10.2c0.1,0.4,0,0.3-0.3,0.4c-0.8,0.6-1.2,1.2-1.7,1.8c0,0-0.1-0.1-0.3,0c-0.4,0.5-0.6,0.9-0.9,1.3
	c-0.2,0.1-0.3,0.1-1,0.3c-2.6,1.2-4.5,2.3-6.5,3.4c-2.2,0.1-4.4,0.1-7.1-0.1c-1.3-1-2.1-1.7-3.1-2.5c-0.1,0.7-0.1,1.3-0.2,1.9
	c-0.4,0-0.8,0-1.6-0.4C367.1,403.5,366.1,400.9,362.7,402C362.8,402,362.7,402,362.7,402z"/>
    <path class="st58" d="M401.4,398.9c-0.6,2.5-1.6,5-2.6,7.8c-1.1-0.1-2.2-0.6-3.9-1.3C397.2,403,399.2,400.9,401.4,398.9z"/>
    <path class="st56" d="M362.8,402.3c3.3-1.4,4.3,1.3,5.7,3.5C366.7,404.9,364.8,403.7,362.8,402.3z"/>
    <path class="st56" d="M381.2,407c1.7-1.1,3.6-2.2,6-3.3C385.5,404.8,383.5,405.9,381.2,407z"/>
    <path class="st56" d="M370.6,406.6c-0.1-0.9-0.1-1.5,0-2.2c1,0.8,1.8,1.5,2.7,2.4C372.5,407,371.7,406.9,370.6,406.6z"/>
    <path class="st55" d="M389.9,401.9c0.1-0.6,0.6-1.2,1.3-1.8C391,400.6,390.6,401.2,389.9,401.9z"/>
    <path class="st55" d="M388.7,403.3c0-0.4,0.2-0.8,0.7-1.3C389.4,402.4,389.1,402.8,388.7,403.3z"/>
    <path class="st58" d="M401.8,397.4c0.2,0.2,0.3,0.7,0.2,1.4C401.7,398.5,401.7,398.1,401.8,397.4z"/>
    <path class="st59" d="M288.2,175.7c0.5-8.3,3.2-15.5,7.5-22.2c0.6-1,1.7-1.8,2.7-2.5c6.8-4.4,13.7-7,22.5-7.1
	c6.4-0.1,10.3,2.6,15.2,4.8c5.3,2.4,8.2,6.3,10.6,11.5c6.1,13.4,6.6,26.3-3.9,37.7c-4.6,5-10.4,9-18.1,8.5
	c-3.5-0.2-7.1,1.1-10.7,0.9c-3-0.2-6.3-1-8.7-2.6c-6.7-4.3-13.2-9-14.4-18C290.4,183.1,289.1,179.6,288.2,175.7 M307.2,156
	c-5.1,2-11.2,11.8-10.7,18c0.8,10.3,4.9,18.7,16.9,23c8.9,3.2,16.8,0.8,23.5-6.4c6.9-7.5,8.6-18.7,3.2-27.8
	c-4.7-7.9-16-13.7-25.3-11.3c-2.5,0.7-4.6,3-6.9,4.6C307.9,156.1,307.9,156.1,307.2,156 M344.5,177.7c0.5,1.7,1,3.3,1.4,5
	c0.7-0.2,1.4-0.3,2-0.5c-0.6-4.1-1.1-8.2-1.7-12.3c-0.3,0.1-0.5,0.1-0.8,0.2C345.3,172.4,345.1,174.7,344.5,177.7z"/>
    <path class="st40" d="M282.6,191.7c-0.1-0.1,0.2-0.1,0.2-0.1S282.7,191.8,282.6,191.7z"/>
    <path class="st40" d="M280.3,189.2c0.1,0,0.3,0,0.3,0.1C280.4,189.4,280.3,189.3,280.3,189.2z"/>
    <path class="st40" d="M284.1,151.4c0.1,0.1,0.3,0.3,0.4,0.4c-0.1-0.1-0.2-0.1-0.3-0.3C284.1,151.4,284.1,151.4,284.1,151.4z"/>
    <path class="st40" d="M284.2,151.3c-0.1-0.2-0.3-0.3-0.4-0.4c0.1,0.1,0.2,0.1,0.3,0.3C284.1,151.4,284.1,151.4,284.2,151.3z"/>
    <path class="st40" d="M353.2,147.7c0.2-0.1,0.2,0.4,0.2,0.6C353.3,148.3,353.1,148,353.2,147.7z"/>
    <path class="st60" d="M429.4,153.4c4-6.7,8.5-1.3,12.1,0c11.7,4.3,18.2,16.7,13.5,31c0,0.3,0,0.3-0.3,0.4c-0.8,1.3-1.3,2.5-1.8,4
	c-3.2,4-6.4,7.6-9.6,11.3c-0.4-0.4-0.8-1-1.2-1.1c-1-0.2-2.1-0.1-3.2-0.2c-3-0.3-6-0.6-9-0.8c-13.9-1.2-19.4-12.8-20.1-22.6
	c-0.4-5.5,3.4-11.4,5.4-17c0.4-1.1,1.2-2,1.8-3.1c1.3,0.2,2.7,0.5,4.3,1.1c-3.9,6-3.8,9.9,0.5,12.9c4.3,2.9,9.2,1.9,12.2-2.5
	C436.7,162.7,434.9,157.6,429.4,153.4z"/>
    <path class="st21" d="M429.1,153.4c5.8,4.2,7.6,9.3,4.9,13.3c-3,4.4-8,5.4-12.2,2.5c-4.3-2.9-4.3-6.9-0.1-12.8
	c0.1-0.3,0-0.3,0.4-0.3c0.8-0.6,1.3-1.2,1.7-1.8c0,0-0.1-0.1,0.3,0.1c1.6-0.2,2.9-0.7,4.2-1.1C428.4,153.4,428.6,153.4,429.1,153.4z
	"/>
    <path class="st61" d="M438.9,199c1-0.2,2.1-0.3,3.2-0.1c0.5,0.1,0.8,0.7,1.2,1.1c3.2-3.7,6.3-7.3,9.9-11.4c0.9-1.7,1.4-2.8,1.8-4
	c0,0,0,0.1,0.1,0.1c1.1-1.7,2.1-3.5,3.2-5.4c3.5,1.7,2.5,5,1.5,7.3c-3.3,8-9.2,13.6-17.5,16.4C439.9,203.8,438,202.4,438.9,199z"/>
    <path class="st60" d="M428.1,153.1c-1.2,0.7-2.5,1.2-4.1,1.4C425.1,153.8,426.6,153.3,428.1,153.1z"/>
    <path class="st60" d="M423.4,154.3c-0.1,0.6-0.6,1.2-1.4,1.8C422.2,155.5,422.6,154.9,423.4,154.3z"/>
    <path class="st62" d="M391.6,389.1c-1.3,5.3-4.8,8.4-8.8,10.9c-6.6,4.2-15.1,1.7-20.5-5.9c-5.8-11.7,0.4-21.2,8.9-24.2
	c5.9-0.6,11.2,0.1,15.6,4.3C391,378.3,392.5,383.1,391.6,389.1 M382.4,391.4c3.1-5.2,2.6-8.2-1.9-11.5c-2.6-1.9-8.3-1.6-10.7,1.5
	c-1.5,1.9-2.5,5.5-1.7,7.6C370.6,395.1,376.1,396,382.4,391.4z"/>
    <path class="st55" d="M369.5,366.7c-0.5,0.7-0.9,1.3-1.4,2c-0.2-0.2-0.5-0.4-0.7-0.6c0.5-0.4,1.1-0.8,1.9-1.2
	C369.5,366.7,369.5,366.7,369.5,366.7z"/>
    <path class="st63" d="M307.9,156.2c2.3-1.6,4.4-4,6.9-4.6c9.3-2.4,20.6,3.4,25.3,11.3c5.4,9.1,3.6,20.3-3.2,27.8
	c-6.7,7.2-14.6,9.6-23.5,6.4c-12-4.3-16.1-12.7-16.9-23c-0.5-6.2,5.6-16,11.1-17.5c-1.3,4.2-3.3,8,0,11.7c2.6,2.9,8.6,2.9,11.7,0.3
	c3.3-2.8,4-7.7,1.7-11.4c-2.3-3.7-5.1-4.2-10-1.9C310,155.6,308.9,155.8,307.9,156.2z"/>
    <path class="st61" d="M344.7,177.4c0.4-2.7,0.6-5,0.9-7.4c0.3-0.1,0.5-0.1,0.8-0.2c0.6,4.1,1.1,8.2,1.7,12.3c-0.7,0.2-1.4,0.3-2,0.5
	C345.5,181,345,179.4,344.7,177.4z"/>
    <path class="st49" d="M454.7,184.8c-0.2,1-0.7,2.2-1.5,3.6C453.5,187.3,453.9,186.1,454.7,184.8z"/>
    <path class="st64" d="M382.2,391.7c-6.1,4.3-11.6,3.4-14.1-2.8c-0.8-2,0.3-5.6,1.7-7.6c2.3-3.1,8-3.4,10.7-1.5
	C385.1,383.2,385.6,386.3,382.2,391.7 M379.8,388.6c0.3-1.1,0.5-2.3,0.9-3.8c-2.8,0.5-5.2,0.8-7.5,1.2c0.3,1.2,0.5,2.2,0.8,3.2
	c0.2,0.9,0.5,1.8,0.8,2.7c0.8-0.3,1.6-0.6,2.4-1.1C377.9,390.4,378.6,389.7,379.8,388.6z"/>
    <path class="st12" d="M307.9,156.1c1-0.3,2.1-0.5,3.1-1c4.9-2.3,7.7-1.8,10,1.9c2.3,3.7,1.6,8.6-1.7,11.4c-3.1,2.6-9.1,2.6-11.7-0.3
	c-3.3-3.7-1.3-7.6,0.4-11.7C307.9,156.1,307.9,156.1,307.9,156.1z"/>
    <path class="st47" d="M379.5,388.9c-0.9,0.8-1.6,1.5-2.4,2c-0.7,0.4-1.6,0.7-2.4,1.1c-0.3-0.9-0.6-1.8-0.8-2.7c-0.3-1-0.5-2-0.8-3.2
	c2.4-0.4,4.7-0.8,7.5-1.2C380.3,386.4,380,387.5,379.5,388.9z"/>
</svg>
